<svg width="160" height="160" viewBox="0 0 160 160" fill="none" xmlns="http://www.w3.org/2000/svg">
<circle cx="80" cy="80" r="80" transform="matrix(-1 0 0 1 160 0)" fill="#8CBC3D"/>
<circle cx="51" cy="63" r="11" fill="black" fill-opacity="0.55" style="mix-blend-mode:multiply"/>
<path fill-rule="evenodd" clip-rule="evenodd" d="M58.7139 47.2822C50.2322 41.374 41.5846 44.797 38.4097 47.1929C36.6463 48.5236 34.138 48.1728 32.8073 46.4094C31.4766 44.646 31.8274 42.1378 33.5908 40.8071C38.4159 37.166 50.9683 32.1372 63.2865 40.7178C65.0992 41.9805 65.5451 44.4736 64.2824 46.2863C63.0197 48.099 60.5266 48.5449 58.7139 47.2822Z" fill="black" fill-opacity="0.55" style="mix-blend-mode:multiply"/>
<circle cx="11" cy="11" r="11" transform="matrix(-1 0 0 1 120 52)" fill="black" fill-opacity="0.55" style="mix-blend-mode:multiply"/>
<path fill-rule="evenodd" clip-rule="evenodd" d="M101.286 47.2822C109.768 41.374 118.415 44.797 121.59 47.1929C123.354 48.5236 125.862 48.1728 127.193 46.4094C128.523 44.646 128.173 42.1378 126.409 40.8071C121.584 37.166 109.032 32.1372 96.7135 40.7178C94.9008 41.9805 94.4549 44.4736 95.7176 46.2863C96.9803 48.099 99.4734 48.5449 101.286 47.2822Z" fill="black" fill-opacity="0.55" style="mix-blend-mode:multiply"/>
<path fill-rule="evenodd" clip-rule="evenodd" d="M119.266 102.704C121.087 103.955 121.548 106.446 120.296 108.266C111.161 121.554 95.676 128 80.3753 128C65.0711 128 49.394 121.558 39.7682 108.357C38.4667 106.572 38.8586 104.069 40.6436 102.768C42.4286 101.466 44.9307 101.858 46.2323 103.643C54.1065 114.442 67.1794 120 80.3753 120C93.5746 120 106.34 114.446 113.704 103.734C114.956 101.913 117.446 101.452 119.266 102.704Z" fill="black" fill-opacity="0.55" style="mix-blend-mode:multiply"/>
</svg>
