<svg width="160" height="160" viewBox="0 0 160 160" fill="none" xmlns="http://www.w3.org/2000/svg">
<circle cx="80" cy="80" r="80" transform="matrix(-1 0 0 1 160 0)" fill="#51A163"/>
<circle cx="51" cy="63.0002" r="11" fill="black" fill-opacity="0.55" style="mix-blend-mode:multiply"/>
<path fill-rule="evenodd" clip-rule="evenodd" d="M53.8322 43.0748C43.8413 40.4238 36.8859 46.5981 34.7219 49.9353C33.52 51.7889 31.043 52.3171 29.1895 51.1152C27.3359 49.9133 26.8076 47.4363 28.0096 45.5828C31.2983 40.511 41.3738 31.4923 55.8839 35.3423C58.0191 35.9089 59.2908 38.0991 58.7243 40.2344C58.1577 42.3697 55.9675 43.6413 53.8322 43.0748Z" fill="black" fill-opacity="0.55" style="mix-blend-mode:multiply"/>
<circle cx="11" cy="11" r="11" transform="matrix(-1 0 0 1 120 52.0002)" fill="black" fill-opacity="0.55" style="mix-blend-mode:multiply"/>
<path fill-rule="evenodd" clip-rule="evenodd" d="M106.166 43.0745C116.157 40.4236 123.112 46.5978 125.276 49.9351C126.478 51.7886 128.955 52.3169 130.809 51.115C132.662 49.9131 133.19 47.4361 131.988 45.5825C128.7 40.5107 118.624 31.4921 104.114 35.3421C101.979 35.9086 100.707 38.0989 101.274 40.2342C101.84 42.3694 104.031 43.6411 106.166 43.0745Z" fill="black" fill-opacity="0.55" style="mix-blend-mode:multiply"/>
<path d="M43 96.0002H117C117 108 105 135 80 135C55 135 43 108 43 96.0002Z" fill="black" fill-opacity="0.55" style="mix-blend-mode:multiply"/>
</svg>
