<svg width="160" height="160" viewBox="0 0 160 160" fill="none" xmlns="http://www.w3.org/2000/svg">
<path d="M0 80C0 124.183 35.8172 160 80 160C124.183 160 160 124.183 160 80C160 35.8172 124.183 0 80 0C35.8172 0 0 35.8172 0 80Z" fill="#F1CF1C"/>
<path d="M62 63C62 69.0751 57.0751 74 51 74C44.9249 74 40 69.0751 40 63C40 56.9249 44.9249 52 51 52C57.0751 52 62 56.9249 62 63Z" fill="black" fill-opacity="0.55" style="mix-blend-mode:multiply"/>
<path fill-rule="evenodd" clip-rule="evenodd" d="M32 43C32 40.7909 33.7909 39 36 39H61C63.2091 39 65 40.7909 65 43C65 45.2091 63.2091 47 61 47H36C33.7909 47 32 45.2091 32 43Z" fill="black" fill-opacity="0.55" style="mix-blend-mode:multiply"/>
<path d="M98 63C98 69.0751 102.925 74 109 74C115.075 74 120 69.0751 120 63C120 56.9249 115.075 52 109 52C102.925 52 98 56.9249 98 63Z" fill="black" fill-opacity="0.55" style="mix-blend-mode:multiply"/>
<path fill-rule="evenodd" clip-rule="evenodd" d="M128 43C128 40.7909 126.209 39 124 39H99C96.7909 39 95 40.7909 95 43C95 45.2091 96.7909 47 99 47H124C126.209 47 128 45.2091 128 43Z" fill="black" fill-opacity="0.55" style="mix-blend-mode:multiply"/>
<path fill-rule="evenodd" clip-rule="evenodd" d="M39 116C39 113.791 40.7909 112 43 112H117C119.209 112 121 113.791 121 116C121 118.209 119.209 120 117 120H43C40.7909 120 39 118.209 39 116Z" fill="black" fill-opacity="0.55" style="mix-blend-mode:multiply"/>
</svg>
