<svg xmlns:inkscape="http://www.inkscape.org/namespaces/inkscape" xmlns:sodipodi="http://sodipodi.sourceforge.net/DTD/sodipodi-0.dtd" xmlns="http://www.w3.org/2000/svg" xmlns:svg="http://www.w3.org/2000/svg" version="1.1" id="svg2" width="435" height="180" viewBox="0 0 440 180" sodipodi:docname="Motion Logo (1) (1).ai">
  <defs id="defs6">
    <clipPath clipPathUnits="userSpaceOnUse" id="clipPath16">
      <path d="M 0,600 H 600 V 0 H 0 Z" id="path14"/>
    </clipPath>
    <clipPath clipPathUnits="userSpaceOnUse" id="clipPath72">
      <path d="M 0,600 H 600 V 0 H 0 Z" id="path70"/>
    </clipPath>
  </defs>
  <sodipodi:namedview xmlns:sodipodi="http://sodipodi.sourceforge.net/DTD/sodipodi-0.dtd" id="namedview4" pagecolor="#ffffff" bordercolor="#000000" borderopacity="0.25" xmlns:inkscape="http://www.inkscape.org/namespaces/inkscape" inkscape:showpageshadow="2" inkscape:pageopacity="0.0" inkscape:pagecheckerboard="0" inkscape:deskcolor="#d1d1d1"/>
  <g id="g8" xmlns:inkscape="http://www.inkscape.org/namespaces/inkscape" inkscape:groupmode="layer" inkscape:label="Motion Logo (1) (1)" transform="matrix(1.3333333,0,0,-1.3333333,-185,420)">
    
    <g id="g66">
      <g id="g68" clip-path="url(#clipPath72)">
        <g id="g74" transform="translate(337.733,291.6422)">
          <path d="m 0,0 c -5.648,-0.004 -11.193,-0.062 -16.329,-0.137 1.526,3.195 6.253,10.696 7.397,14.29 1.144,5.192 -4.679,11.496 -11.353,4.107 -4.766,-5.391 -7.627,-9.984 -11.44,-17.373 0,-0.2 -0.723,-1.51 -0.723,-1.51 -8.962,0 -13.647,-0.221 -22.609,-1.019 -1.907,-0.2 -1.374,-4.282 0.723,-4.481 7.627,-0.599 11.168,-0.379 18.795,-0.179 -11.44,-23.164 -20.402,-43.533 -25.931,-65.099 -2.861,-11.782 -3.814,-23.963 2.478,-33.149 6.674,-10.184 17.924,-3.794 23.263,3.395 5.911,7.987 12.966,21.367 16.97,33.548 0.572,3.794 -1.834,2.613 -3.169,-1.381 -10.106,-30.354 -33.719,-43.264 -26.473,-8.916 5.72,26.758 17.142,49.578 29.154,71.943 0.573,0 3.92,0.059 4.301,0.059 4.954,0.068 9.929,0.029 14.904,-0.008 1.214,-0.009 2.312,0.731 2.742,1.867 0.008,0.02 0.015,0.039 0.023,0.059 C 3.454,-2.061 2.057,0.001 0,0" style="fill:#385988;fill-opacity:1;fill-rule:nonzero;stroke:none" id="path76"/>
        </g>
        <g id="g78" transform="translate(342.887,261.9087)">
          <path d="M 0,0 C -1.639,-1.014 -7.421,0.248 -8.268,1.483 -9.927,3.538 -7.833,7.11 -5.749,8.027 -4.176,8.676 1.932,6.847 2.399,6.074 3.212,4.057 1.638,1.014 0,0 m 6.398,-27.814 c -4.441,-7.044 -14.854,-29.402 -25.267,-29.249 -3.829,1.072 -5.82,4.9 -6.739,8.422 -3.062,14.855 5.36,30.168 13.017,42.726 2.45,3.675 8.913,2.961 10.75,0.204 0.996,-1.279 -4.454,-9.018 -5.874,-12.124 -0.177,-0.388 -0.395,-0.753 -0.639,-1.103 -4.294,-6.147 -17.647,-47.874 1.499,-26.204 3.982,4.594 7.963,12.864 11.333,18.07 2.909,4.135 3.605,1.862 1.92,-0.742" style="fill:#385988;fill-opacity:1;fill-rule:nonzero;stroke:none" id="path80"/>
        </g>
        <g id="g82" transform="translate(442.188,268.0946)">
          <path d="m 0,0 -2.07,-2.355 c -2.723,-3.371 -13.609,-17.623 -16.031,-21.529 -2.897,-4.673 -14.421,-23.652 -17.2,-28.436 l -1.614,-2.784 c -0.807,-1.759 -2.109,-2.539 -3.902,-2.345 -0.448,0.099 -0.918,0.172 -1.412,0.22 -0.492,0.05 -0.963,0.172 -1.413,0.366 -1.614,0.488 -2.691,1.099 -3.229,1.832 -0.538,0.733 -0.807,2.026 -0.807,3.883 0,3.612 0.248,7.203 0.74,10.77 0.494,3.564 1.19,7.055 2.085,10.476 1.526,6.154 3.208,12.136 5.045,17.949 1.838,5.811 4.057,11.551 6.66,17.217 0.448,1.074 1.063,2.018 1.547,3.004 0.452,0.92 1.915,5.027 3.421,4.711 2.098,-0.44 5.749,-1.366 7.544,-3.026 1.164,-0.978 1.568,-2.344 1.211,-4.103 l -5.651,-20.22 c -0.538,-2.051 -1.122,-4.129 -1.749,-6.228 -0.629,-2.102 -1.257,-4.176 -1.883,-6.227 0,-0.196 -0.024,-0.416 -0.068,-0.659 0,-0.002 -0.001,-0.005 -0.001,-0.008 -0.191,-1.035 1.103,-1.668 1.803,-0.883 l 0.149,0.168 c 5.112,7.619 11.346,13.887 16.548,20.66 5.254,6.841 11.211,14.179 16.952,20.431 0.626,0.78 1.433,1.171 2.421,1.171 2.332,-0.197 4.259,-0.977 5.785,-2.343 1.165,-1.076 1.615,-2.297 1.345,-3.664 C 16.046,6.972 15.89,5.85 15.756,4.678 15.621,3.506 15.373,2.382 15.016,1.308 13.759,-3.381 12.346,-7.996 10.778,-12.538 9.207,-17.081 7.616,-21.648 6.002,-26.238 3.937,-32.1 -3.775,-53.146 -5.299,-59.3 c -0.269,-1.074 -0.494,-2.147 -0.673,-3.223 -0.085,-0.508 -0.909,-4.109 -0.085,-4.678 0.919,-0.634 3.507,1.794 3.602,1.896 1.524,1.759 3.075,3.452 4.466,5.306 1.39,1.857 2.726,3.568 3.983,5.619 l 16.612,27.865 c 0.986,1.758 2.179,1.339 2.269,1.096 0.088,-0.246 0.302,-1.013 0.033,-1.695 L 24.235,-28.58 C 20.557,-34.734 1.562,-66.722 -0.59,-69.557 c -1.705,-2.147 -3.747,-3.393 -6.122,-3.736 -2.378,-0.341 -4.687,0.27 -6.928,1.831 -1.436,1.076 -2.445,2.37 -3.027,3.883 -0.585,1.516 -0.965,3.151 -1.144,4.909 -0.181,2.344 -0.158,4.689 0.067,7.033 0.223,2.345 9.513,32.099 11.666,37.571 0,0 6.383,17.03 6.564,17.616 L 1.244,1.3 Z" style="fill:#385988;fill-opacity:1;fill-rule:nonzero;stroke:none" id="path84"/>
        </g>
        <g id="g86" transform="translate(257.4333,288.288)">
          <path d="m 0,0 c 10.656,-22.334 5.643,-51.155 -11.928,-68.58 -1.879,-1.863 -4.359,-3.731 -6.923,-3.075 -3.714,0.951 -4.207,6.013 -3.575,9.795 2.183,13.061 8.385,25.422 17.55,34.981 1.787,1.864 3.824,3.958 3.718,6.538 -0.141,3.441 -4.342,5.544 -7.691,4.74 -3.348,-0.805 -5.854,-3.54 -7.927,-6.29 -10.301,-13.661 -15.207,-31.282 -13.448,-48.301 0.473,-4.58 1.835,-9.713 5.92,-11.837 4.41,-2.294 9.786,0.045 13.866,2.884 15.685,10.915 25.106,29.279 28.292,48.12 1.219,7.208 1.539,14.95 -1.724,21.492 C 12.866,-2.991 5.051,1.734 0,0" style="fill:#385988;fill-opacity:1;fill-rule:nonzero;stroke:none" id="path88"/>
        </g>
        <g id="g90" transform="translate(160.2538,270.64)">
          <path d="m 0,0 c -7.333,-17.359 -13.63,-35.156 -18.847,-53.264 -1.085,-3.767 -1.105,-9.311 2.758,-9.977 2.417,-0.418 4.478,1.653 6.054,3.533 12.011,14.326 24.022,28.652 36.033,42.978 -4.184,-11.996 -8.368,-23.993 -12.552,-35.989 -0.898,-2.575 -1.391,-6.201 1.09,-7.334 2.245,-1.024 4.573,1.151 6.088,3.098 7.874,10.118 15.747,20.236 23.62,30.353 -4.1,-10.182 -6.394,-19.653 -5.263,-30.572 0.374,-3.607 2.547,-9.71 6.143,-10.174 2.357,-0.304 4.489,1.321 6.252,2.915 6.113,5.528 11.491,11.867 15.948,18.8 -2.798,-3.483 -5.119,-5.925 -8.087,-8.949 -2.849,-2.904 -6.881,-5.984 -10.433,-4.001 -2.258,1.26 -2.639,3.839 -2.368,6.41 0.267,2.529 0.847,5.187 1.715,7.577 4.413,12.163 11.151,23.352 16.727,35.028 1.106,2.317 2.239,4.761 2.087,7.323 C 66.813,0.318 64.884,2.97 62.317,2.965 60.354,2.96 58.738,1.497 57.349,0.11 47.358,-9.871 38.406,-22.146 30.134,-33.592 c 4.995,7.773 8.782,17.66 11.716,26.42 1.061,3.168 1.541,7.52 -1.43,9.049 C 37.471,3.396 34.236,0.543 32.144,-2.03 19.916,-17.071 7.689,-32.111 -4.538,-47.152 l 15.486,32.478 c 1.329,2.789 2.693,5.77 2.324,8.837 C 12.599,-0.244 5.056,3.135 0,0" style="fill:#385988;fill-opacity:1;fill-rule:nonzero;stroke:none" id="path92"/>
        </g>
        <g id="g94" transform="translate(377.94,288.288)">
          <path d="m 0,0 c 10.656,-22.334 5.643,-51.155 -11.928,-68.58 -1.879,-1.863 -4.359,-3.731 -6.923,-3.075 -3.714,0.951 -4.207,6.013 -3.575,9.795 2.183,13.061 8.385,25.422 17.55,34.981 1.787,1.864 3.824,3.958 3.718,6.538 -0.141,3.441 -4.342,5.544 -7.691,4.74 -3.348,-0.805 -5.854,-3.54 -7.927,-6.29 -10.301,-13.661 -15.207,-31.282 -13.448,-48.301 0.473,-4.58 1.835,-9.713 5.92,-11.837 4.41,-2.294 9.786,0.045 13.866,2.884 15.685,10.915 25.106,29.279 28.292,48.12 1.219,7.208 1.539,14.95 -1.724,21.492 C 12.866,-2.991 5.051,1.734 0,0" style="fill:#385988;fill-opacity:1;fill-rule:nonzero;stroke:none" id="path96"/>
        </g>
      </g>
    </g>
  </g>
</svg>