<svg xmlns="http://www.w3.org/2000/svg" version="1.1" xmlns:xlink="http://www.w3.org/1999/xlink" xmlns:svgjs="http://svgjs.com/svgjs" width="1080" height="1080"><svg xmlns="http://www.w3.org/2000/svg" xmlns:xlink="http://www.w3.org/1999/xlink" width="1080" zoomAndPan="magnify" viewBox="0 0 810 809.999993" height="1080" preserveAspectRatio="xMidYMid meet" version="1.0"><path fill="#051784" d="M 191.703125 104.839844 C 123.617188 266.019531 65.148438 431.265625 16.710938 599.394531 C 6.636719 634.371094 6.449219 685.847656 42.316406 692.03125 C 64.757812 695.914062 83.894531 676.683594 98.527344 659.230469 C 210.050781 526.210938 321.574219 393.195312 433.09375 260.179688 C 394.246094 371.5625 355.398438 482.953125 316.550781 594.335938 C 308.210938 618.246094 303.632812 651.914062 326.671875 662.433594 C 347.515625 671.941406 369.128906 651.746094 383.195312 633.667969 C 456.308594 539.722656 529.40625 445.777344 602.507812 351.839844 C 564.441406 446.378906 543.140625 534.316406 553.640625 635.699219 C 557.113281 669.191406 577.289062 725.859375 610.679688 730.164062 C 632.5625 732.988281 652.359375 717.902344 668.730469 703.101562 C 725.488281 651.773438 775.421875 592.914062 816.804688 528.542969 C 790.824219 560.882812 769.277344 583.554688 741.71875 611.632812 C 715.265625 638.597656 677.828125 667.195312 644.847656 648.78125 C 623.882812 637.085938 620.34375 613.136719 622.859375 589.265625 C 625.339844 565.785156 630.726562 541.105469 638.785156 518.914062 C 679.757812 405.980469 742.320312 302.089844 794.09375 193.679688 C 804.363281 172.167969 814.882812 149.472656 813.472656 125.6875 C 812.0625 101.890625 794.148438 77.265625 770.316406 77.3125 C 752.089844 77.359375 737.085938 90.941406 724.1875 103.820312 C 631.421875 196.492188 548.300781 310.464844 471.496094 416.742188 C 517.875 344.570312 553.039062 252.769531 580.28125 171.433594 C 590.132812 142.019531 594.589844 101.609375 567.003906 87.414062 C 539.621094 73.308594 509.585938 99.800781 490.160156 123.691406 C 376.625 263.34375 263.097656 402.992188 149.570312 542.648438 L 293.355469 241.089844 C 305.695312 215.195312 318.359375 187.515625 314.933594 159.039062 C 308.683594 107.105469 238.648438 75.734375 191.703125 104.839844 " fill-opacity="1" fill-rule="nonzero"></path></svg><style>@media (prefers-color-scheme: light) { :root { filter: none; } }
@media (prefers-color-scheme: dark) { :root { filter: contrast(0.3846153846153846) brightness(4.5); } }
</style></svg>