<svg width="144" height="95" viewBox="0 0 144 95" fill="none" xmlns="http://www.w3.org/2000/svg">
<g clip-path="url(#clip0_198_9939)">
<path d="M80.6551 61.2348C78.9371 61.2348 77.2526 61.2532 75.6898 61.2778C76.155 60.2941 77.5901 57.9886 77.9398 56.885C78.2864 55.2896 76.5168 53.3499 74.4887 55.6216C73.0384 57.2785 72.1687 58.6895 71.0103 60.9612C71.0103 61.0227 70.7913 61.4254 70.7913 61.4254C68.067 61.4254 66.6409 61.493 63.9165 61.7389C63.3358 61.8004 63.5 63.0546 64.1355 63.1161C66.4554 63.3005 67.5318 63.2329 69.8518 63.1714C66.3733 70.2909 63.649 76.5527 61.9675 83.1834C61.0979 86.8046 60.809 90.5488 62.7216 93.3738C64.7497 96.5032 68.1703 94.5389 69.794 92.3317C71.591 89.8756 73.7377 85.7625 74.9539 82.0183C75.1272 80.8533 74.3975 81.216 73.9901 82.4426C70.916 91.7723 63.7371 95.7408 65.9416 85.1846C67.6808 76.9585 71.1532 69.9435 74.8049 63.07C74.9783 63.07 75.9969 63.0515 76.1124 63.0515C77.6175 63.03 79.1317 63.0423 80.6429 63.0515C81.0108 63.0515 81.3453 62.8271 81.476 62.4767C81.476 62.4705 81.4821 62.4644 81.4821 62.4582C81.7041 61.868 81.2784 61.2317 80.6551 61.2348Z" fill="#051784"/>
<path d="M84.167 78.9228C82.8169 81.0869 79.6517 87.9604 76.4833 87.9143C75.3188 87.5854 74.7137 86.4081 74.434 85.326C73.5036 80.7611 76.0637 76.0516 78.3928 72.1906C79.1378 71.0594 81.102 71.2807 81.6615 72.1292C81.9656 72.5226 80.3084 74.9019 79.8767 75.8549C79.8219 75.9748 79.7581 76.0855 79.6821 76.193C78.3776 78.0836 74.3154 90.9084 80.1382 84.247C81.3483 82.836 82.5585 80.2938 83.5832 78.6922C84.468 77.4227 84.6808 78.1205 84.167 78.9197V78.9228ZM82.221 70.3739C81.7223 70.6844 79.9648 70.297 79.7064 69.9189C79.2017 69.2857 79.8371 68.1883 80.4726 67.9085C80.95 67.7087 82.8078 68.2713 82.9507 68.508C83.197 69.1289 82.7196 70.0634 82.221 70.3739Z" fill="#051784"/>
<path d="M112.414 68.4711L111.785 69.1935C110.958 70.2294 107.647 74.6099 106.911 75.8119C106.029 77.2474 102.526 83.082 101.681 84.5544L101.191 85.409C100.945 85.95 100.55 86.1898 100.005 86.1283C99.8686 86.0976 99.7257 86.0761 99.5767 86.0607C99.4278 86.0453 99.2848 86.0084 99.148 85.947C98.6585 85.7963 98.3301 85.6088 98.1659 85.3844C98.0017 85.16 97.9196 84.7604 97.9196 84.1917C97.9196 83.082 97.9956 81.9784 98.1446 80.881C98.2936 79.7866 98.5064 78.7107 98.7801 77.6594C99.2453 75.7688 99.7561 73.9275 100.316 72.1415C100.875 70.3555 101.55 68.591 102.341 66.848C102.477 66.5191 102.663 66.227 102.812 65.9258C102.949 65.643 103.393 64.3795 103.852 64.4779C104.49 64.6132 105.6 64.899 106.144 65.4093C106.497 65.7106 106.622 66.1287 106.512 66.6697L104.794 72.8854C104.63 73.5156 104.454 74.155 104.262 74.8005C104.071 75.4461 103.879 76.0855 103.691 76.7156C103.691 76.7771 103.685 76.8447 103.669 76.9185C103.612 77.2351 104.004 77.4319 104.217 77.189L104.262 77.1368C105.816 74.7944 107.713 72.8669 109.295 70.7858C110.891 68.6832 112.703 66.4268 114.448 64.5056C114.64 64.2658 114.883 64.1459 115.184 64.1459C115.893 64.2074 116.479 64.4472 116.945 64.8652C117.297 65.1972 117.434 65.5723 117.355 65.9903C117.3 66.3223 117.252 66.6666 117.212 67.0263C117.173 67.3859 117.097 67.7333 116.987 68.0622C116.604 69.504 116.175 70.9211 115.698 72.3198C115.221 73.7154 114.737 75.1202 114.245 76.5312C113.618 78.3326 111.271 84.8034 110.809 86.694C110.727 87.0229 110.66 87.3549 110.605 87.6838C110.578 87.8406 110.328 88.9472 110.581 89.1224C110.86 89.3161 111.648 88.5722 111.675 88.5384C112.137 87.9973 112.609 87.4778 113.034 86.9061C113.457 86.3343 113.865 85.8086 114.245 85.1785L119.295 76.6142C119.596 76.0732 119.958 76.2023 119.985 76.2761C120.013 76.3529 120.077 76.5865 119.994 76.7986L119.791 77.2505C118.672 79.1411 112.898 88.9749 112.241 89.8479C111.724 90.5088 111.101 90.89 110.38 90.9976C109.656 91.1021 108.954 90.9146 108.273 90.4351C107.835 90.1031 107.531 89.7065 107.352 89.2423C107.175 88.7751 107.06 88.274 107.005 87.733C106.95 87.0137 106.956 86.2913 107.026 85.5719C107.093 84.8526 109.918 75.7043 110.575 74.0228C110.575 74.0228 112.515 68.7877 112.569 68.6063L112.8 68.0684L112.423 68.468L112.414 68.4711Z" fill="#051784"/>
<path d="M56.239 62.2646C59.4803 69.1289 57.9539 77.9914 52.6116 83.3463C52.0399 83.9181 51.2859 84.4929 50.5075 84.2931C49.3794 84.0011 49.2274 82.4456 49.422 81.2836C50.0848 77.269 51.97 73.4694 54.7582 70.5307C55.3025 69.9589 55.9197 69.3133 55.8893 68.5202C55.8468 67.4628 54.5697 66.8172 53.5511 67.0632C52.5325 67.3091 51.7724 68.1514 51.1399 68.9967C48.0081 73.1959 46.5152 78.6123 47.0503 83.8443C47.1932 85.2522 47.6098 86.8292 48.8503 87.484C50.1912 88.1879 51.8271 87.4686 53.0677 86.5987C57.8353 83.2449 60.7026 77.5979 61.6695 71.8064C62.0405 69.59 62.1378 67.2107 61.1465 65.2003C60.1553 63.1899 57.7776 61.7359 56.242 62.2707L56.239 62.2646Z" fill="#051784"/>
<path d="M26.6904 67.6903C24.4617 73.0268 22.5461 78.4986 20.9589 84.0626C20.6305 85.2215 20.6214 86.9245 21.7981 87.1305C22.5339 87.2596 23.1603 86.6233 23.6376 86.0453C27.2894 81.6402 30.9412 77.2382 34.5929 72.8331C33.322 76.522 32.048 80.2077 30.777 83.8966C30.5033 84.6897 30.3543 85.8025 31.1084 86.1499C31.7926 86.4634 32.498 85.7963 32.9601 85.1969C35.3531 82.086 37.7491 78.9751 40.1421 75.8672C38.8954 78.9966 38.1991 81.9077 38.5427 85.2645C38.6552 86.3743 39.318 88.2494 40.4096 88.3908C41.1272 88.4831 41.7749 87.9851 42.31 87.4932C44.1678 85.7933 45.8037 83.8443 47.1598 81.714C46.3084 82.7838 45.603 83.5369 44.6999 84.4653C43.7969 85.3936 42.608 86.3036 41.5286 85.6949C40.8414 85.3076 40.7259 84.5145 40.8079 83.7244C40.89 82.9344 41.0664 82.129 41.3279 81.3943C42.6688 77.6563 44.7182 74.2164 46.4148 70.626C46.7523 69.9128 47.0959 69.1627 47.0503 68.3758C47.0047 67.5888 46.4179 66.7711 45.6364 66.7742C45.0405 66.7742 44.5479 67.2261 44.1252 67.6503C41.0877 70.7182 38.3663 74.4931 35.8487 78.0098C37.366 75.6213 38.5184 72.5811 39.4123 69.8882C39.7346 68.9137 39.8806 67.5765 38.9775 67.1062C38.0805 66.639 37.0984 67.5151 36.4599 68.3082C32.7412 72.9315 29.0256 77.5548 25.3069 82.1782C26.8759 78.849 28.4448 75.5229 30.0168 72.1937C30.4212 71.3361 30.8348 70.42 30.7223 69.4763C30.5185 67.7579 28.2229 66.7189 26.6874 67.681L26.6904 67.6903Z" fill="#051784"/>
<path d="M92.8813 62.2646C96.1226 69.1289 94.5962 77.9914 89.2539 83.3463C88.6823 83.9181 87.9282 84.4929 87.1498 84.2931C86.0217 84.0011 85.8697 82.4456 86.0643 81.2836C86.7272 77.269 88.6123 73.4694 91.4006 70.5307C91.9448 69.9589 92.5621 69.3133 92.5317 68.5202C92.4891 67.4628 91.212 66.8172 90.1934 67.0632C89.1748 67.3091 88.4147 68.1514 87.7822 68.9967C84.6504 73.1959 83.1575 78.6123 83.6926 83.8443C83.8355 85.2522 84.2521 86.8292 85.4927 87.484C86.8336 88.1879 88.4694 87.4686 89.71 86.5987C94.4777 83.2449 97.3449 77.5979 98.3119 71.8064C98.6828 69.59 98.7801 67.2107 97.7889 65.2003C96.7976 63.1899 94.4199 61.7359 92.8844 62.2707L92.8813 62.2646Z" fill="#051784"/>
<path d="M119.341 26.2553C119.061 25.3731 118.623 23.5717 119.061 21.3799C119.228 20.5438 119.806 17.8755 122.269 15.9635C125.075 13.7809 128.253 14.199 128.858 14.2912L128.946 14.3557C129.18 14.9275 130.357 17.9401 128.946 21.2231C127.711 24.1035 125.291 25.3178 124.531 25.6866C122.536 26.6519 120.7 26.658 119.788 26.5996L119.344 26.2553H119.341Z" fill="#0f8ac6"/>
<path d="M99.1571 16.5844C102.152 20.6206 103.791 22.8278 105.32 27.5926C107.078 33.0736 106.476 37.743 105.877 42.4033C105.193 47.6998 103.745 51.9051 102.59 54.6871L101.799 56.3686H101.821L102.888 54.8531C104.724 52.4769 107.656 49.1508 111.9 45.9691C115.634 43.1718 119.374 40.3652 124.969 39.2493C129.831 38.2779 134.44 38.9112 139.387 39.5905C141.318 39.8549 142.908 40.1592 144.006 40.3867C143.383 39.692 142.437 38.6775 141.221 37.5217C137.356 33.8451 133.86 30.516 129.551 29.4985C123.771 28.1336 118.41 31.3767 116.245 32.8799C116.346 32.1514 116.443 31.0662 116.349 29.7598C116.069 25.9818 114.302 21.3523 110.228 18.5088C106.449 15.8713 102.438 16.5107 100.948 16.5137L99.1632 16.5844H99.1571Z" fill="#051784"/>
<path d="M109.89 45.8308C111.423 42.8951 112.952 39.9625 114.485 37.0268C115.172 35.708 116.166 34.5706 117.398 33.7468C117.407 33.7406 117.416 33.7345 117.422 33.7283C117.957 33.3717 119.845 32.1052 121.913 31.4136C126.033 30.0333 129.937 31.2322 130.986 31.5919C134.188 32.6832 136.243 34.6075 137.241 35.6865L139.883 38.2963C137.715 37.8045 135.505 37.5463 133.285 37.5248L129.35 37.4879C127.356 37.4694 125.37 37.7369 123.452 38.284L123.412 38.2963C118.471 39.7104 114.655 42.062 111.961 44.1462L109.89 45.8277V45.8308Z" fill="#108AC6"/>
<path d="M102.359 18.4596C103.715 19.4494 106.968 22.1054 108.756 26.8671C110.362 31.1462 109.732 34.878 109.076 38.9942C108.592 42.0098 107.504 46.5993 104.758 51.7668C106.099 50.5587 107.543 49.0647 108.948 47.2449C110.705 44.9701 113.573 41.2812 114.792 35.7941C115.151 34.1833 115.315 32.6401 115.351 31.2015C115.446 27.4635 114.053 23.8453 111.581 21.0633L111.383 20.842L111.687 22.9969C111.301 22.4927 110.839 21.9671 110.286 21.4568C108.778 20.0643 107.13 19.2712 105.728 18.81C104.642 18.4535 103.493 18.3459 102.359 18.4596Z" fill="#E7FFFF"/>
<path d="M71.5819 15.3394C70.84 14.8015 69.4231 13.6149 68.4866 11.5922C68.1308 10.8206 67.021 8.32756 67.8693 5.31193C68.8363 1.86901 71.6336 0.292033 72.1748 0H72.2843C72.8103 0.316626 75.5286 2.02886 76.3313 5.51482C77.0337 8.57041 75.8084 11.005 75.4161 11.7582C74.3823 13.7348 72.9107 14.8476 72.1444 15.3487L71.585 15.3394H71.5819Z" fill="#0f8ac6"/>
<path d="M99.6771 19.142C98.8075 17.2269 97.4848 15.5516 95.7943 14.3219C94.4108 13.3167 92.5864 12.3515 90.3212 11.8996C84.3099 10.7038 79.749 14.0268 78.6057 14.8599C73.8168 18.3489 72.4698 23.3535 72.1414 24.7644C71.813 23.3535 70.466 18.3489 65.6771 14.8599C64.5338 14.0268 59.9729 10.7038 53.9616 11.8996C49.1149 12.8648 46.2932 16.1756 45.4814 17.2054L44.1952 18.9545L45.4692 18.6717C46.874 18.3581 48.3091 18.1799 49.7473 18.186C51.9609 18.1983 53.767 18.5887 55.1687 19.0498C64.8014 22.2161 71.36 33.9712 72.1414 48.5944C72.9198 33.9712 79.4784 22.213 89.114 19.0498C90.7438 18.5149 92.9209 18.0723 95.6513 18.2106C96.7733 18.2659 97.8801 18.4965 98.9382 18.8746L99.6801 19.139L99.6771 19.142Z" fill="#051784"/>
<path d="M44.1982 18.9545C44.9189 18.103 46.0561 16.9533 47.6949 15.945C48.3578 15.5362 50.0636 14.5617 52.4869 14.076C53.3444 13.9039 55.8711 13.4735 58.933 14.1959C63.8558 15.3548 66.7595 18.6932 67.8025 19.9228C70.9921 23.6916 71.8069 27.7493 72.0532 29.5415L72.5488 27.6909C72.71 27.156 72.9593 26.4029 73.3181 25.5237C73.9627 23.9467 75.0026 21.4014 77.201 19.0959C79.8585 16.3047 82.9355 15.195 84.4315 14.7677C88.439 13.6241 91.7259 14.3588 92.6564 14.5924C95.025 15.1888 96.7794 16.2278 97.8467 16.981L99.0751 17.977L99.221 18.2321L99.3639 18.4842L99.5798 18.9238L99.6802 19.142L99.3366 19.0191L98.9048 18.8654L97.9501 18.5733C97.9501 18.5733 97.9379 18.5703 97.9318 18.5672L97.3754 18.4381C96.8554 18.06 95.7791 17.3314 94.7635 16.8765C94.125 16.5906 90.1783 14.8906 85.5961 16.2217C82.4643 17.1316 80.5396 19.0221 79.3203 20.2517C73.3181 26.2922 72.3086 34.8042 72.0836 38.0719C71.959 37.0944 71.7492 35.7264 71.3904 34.1157C70.6363 30.7434 69.8397 27.1714 67.7143 23.9467C66.9207 22.7417 62.8311 16.8734 55.6157 15.9758C54.2079 15.8005 52.9096 15.8436 51.7693 15.9911C49.9085 16.234 48.1784 17.0916 46.8314 18.4165L44.1982 18.9576V18.9545Z" fill="#E7FFFF"/>
<path d="M44.1982 18.9545C44.8094 18.2321 45.7672 17.2392 47.1203 16.3139C50.848 13.7748 54.6914 13.7563 55.9228 13.7963C59.8695 13.9223 62.6334 15.5915 63.7128 16.2678C70.3049 20.3993 71.7826 27.983 72.0532 29.5384C72.2144 28.816 72.482 27.7862 72.9198 26.5904C73.7499 24.3218 75.0938 20.6391 78.6635 17.7433C82.823 14.365 87.4235 14.1529 88.5333 14.1314C92.3858 14.0545 95.1801 15.4409 95.7851 15.7483C97.0044 16.3631 97.9531 17.0425 98.6616 17.6388C98.6737 17.6481 98.7102 17.6788 98.7224 17.688C98.7984 17.7526 98.8683 17.8079 98.9383 17.8632C98.9626 17.8817 98.9869 17.9001 99.0082 17.9216C99.0295 17.9401 99.0538 17.9555 99.072 17.9739C99.069 17.9678 99.066 17.9616 99.0629 17.9585C99.0629 17.9555 99.0568 17.9493 99.0568 17.9462C98.8166 17.5343 98.4578 16.9748 97.9561 16.3662C96.077 14.0914 93.678 12.8556 91.6803 12.247C89.6826 11.6383 88.1958 11.6537 87.9343 11.6475C84.1852 11.5553 81.4669 13.077 80.1625 13.827C79.2595 14.3465 76.1398 16.2586 73.9293 20.1749C72.9228 21.9578 72.4151 23.6055 72.1414 24.7675C72.0502 24.374 71.9073 23.8269 71.6914 23.1875C71.2475 21.8749 70.1863 19.2558 67.9058 16.8273C66.9237 15.7821 64.1081 12.8618 59.4347 11.958C58.2793 11.7336 57.1968 11.6229 56.236 11.6506C54.0012 11.7121 52.4018 12.3085 51.967 12.4622C49.5163 13.3383 47.8591 14.7246 46.9591 15.5946L46.4939 16.0526L45.98 16.609L45.4175 17.2945L44.1982 18.9514V18.9545Z" fill="#108AC6"/>
<path d="M24.6593 26.7718C24.939 25.8895 25.3768 24.0882 24.939 21.8964C24.7718 21.0602 24.1941 18.392 21.7312 16.4799C18.9247 14.2974 15.7473 14.7154 15.1422 14.8076L15.054 14.8722C14.8199 15.444 13.6432 18.4565 15.054 21.7396C16.2885 24.62 18.7088 25.8342 19.469 26.2031C21.4636 27.1683 23.3001 27.1745 24.2123 27.1161L24.6562 26.7718H24.6593Z" fill="#0f8ac6"/>
<path d="M44.8428 17.1009C41.8478 21.1371 40.2089 23.3443 38.6795 28.109C36.922 33.59 37.5241 38.2595 38.1231 42.9197C38.8072 48.2163 40.2545 52.4216 41.41 55.2036L42.2005 56.8851H42.1792L41.112 55.3696C39.2755 52.9933 36.3443 49.6672 32.0996 46.4856C28.3658 43.6882 24.6258 40.8816 19.0311 39.7657C14.1692 38.7944 9.55964 39.4276 4.61258 40.107C2.68179 40.3713 1.09155 40.6757 -0.00610352 40.9031C0.61722 40.2084 1.56285 39.194 2.77909 38.0381C6.6437 34.3616 10.1404 31.0324 14.4489 30.0149C20.2291 28.65 25.5897 31.8931 27.7546 33.3963C27.6543 32.6678 27.557 31.5827 27.6512 30.2762C27.931 26.4982 29.6976 21.8687 33.772 19.0252C37.5514 16.3877 41.562 17.0271 43.0519 17.0302L44.8367 17.1009H44.8428Z" fill="#051784"/>
<path d="M34.1095 46.3473C32.577 43.4115 31.0476 40.4789 29.5151 37.5432C28.8279 36.2245 27.8337 35.0871 26.6022 34.2632C26.5931 34.2571 26.584 34.2509 26.5779 34.2448C26.0427 33.8882 24.1545 32.6217 22.0869 31.93C17.9669 30.5498 14.0628 31.7487 13.0138 32.1083C9.812 33.1996 7.75655 35.1239 6.75923 36.2029L4.11694 38.8128C6.28489 38.3209 8.49541 38.0627 10.7151 38.0412L14.6496 38.0043C16.6442 37.9859 18.6297 38.2533 20.5484 38.8005L20.5879 38.8128C25.5289 40.2268 29.3448 42.5785 32.0388 44.6627L34.1095 46.3442V46.3473Z" fill="#108AC6"/>
<path d="M41.6411 18.9761C40.285 19.9659 37.0315 22.6219 35.2436 27.3835C33.6382 31.6626 34.2676 35.3945 34.9244 39.5106C35.4078 42.5262 36.4964 47.1158 39.242 52.2832C37.9011 51.0751 36.4568 49.5812 35.0521 47.7613C33.2946 45.4865 30.4273 41.7977 29.208 36.3105C28.8492 34.6997 28.6851 33.1566 28.6486 31.7179C28.5543 27.9799 29.9469 24.3618 32.4189 21.5798L32.6166 21.3584L32.3125 23.5133C32.6987 23.0092 33.1608 22.4835 33.7142 21.9732C35.2224 20.5807 36.8704 19.7876 38.2721 19.3265C39.3576 18.9699 40.5069 18.8623 41.6411 18.9761Z" fill="#E7FFFF"/>
</g>
<defs>
<clipPath id="clip0_198_9939">
<rect width="144" height="95" fill="white"/>
</clipPath>
</defs>
</svg>
