<svg width="19" height="21" viewBox="0 0 19 21" fill="none" xmlns="http://www.w3.org/2000/svg">
<path d="M12.25 6.25C12.8433 6.25 13.4233 6.07405 13.9167 5.74441C14.41 5.41476 14.7945 4.94623 15.0216 4.39805C15.2487 3.84987 15.3081 3.24667 15.1923 2.66473C15.0766 2.08279 14.7908 1.54824 14.3713 1.12868C13.9517 0.709122 13.4172 0.4234 12.8352 0.307644C12.2533 0.191889 11.6501 0.251299 11.1019 0.478362C10.5537 0.705424 10.0852 1.08994 9.75555 1.58329C9.42591 2.07664 9.24996 2.65666 9.24996 3.25C9.25243 4.04489 9.56929 4.80651 10.1314 5.36859C10.6934 5.93066 11.4551 6.24753 12.25 6.25ZM12.25 1.75C12.5466 1.75 12.8366 1.83797 13.0833 2.0028C13.33 2.16762 13.5222 2.40189 13.6358 2.67597C13.7493 2.95006 13.779 3.25166 13.7211 3.54264C13.6633 3.83361 13.5204 4.10088 13.3106 4.31066C13.1008 4.52044 12.8336 4.6633 12.5426 4.72118C12.2516 4.77906 11.95 4.74935 11.6759 4.63582C11.4018 4.52229 11.1676 4.33003 11.0028 4.08336C10.8379 3.83668 10.75 3.54667 10.75 3.25C10.75 2.85218 10.908 2.47064 11.1893 2.18934C11.4706 1.90804 11.8521 1.75 12.25 1.75ZM18.5968 11.1813C18.5406 11.2188 17.8843 11.5469 16.7125 11.5469C15.5406 11.5469 13.5062 11.1344 11.0875 9.45625C10.7115 10.5758 10.2082 11.6484 9.58746 12.6531C10.45 12.9344 11.5375 13.3938 12.5125 14.1344C14.3031 15.4938 15.25 17.4344 15.25 19.75C15.25 19.9489 15.1709 20.1397 15.0303 20.2803C14.8896 20.421 14.6989 20.5 14.5 20.5C14.301 20.5 14.1103 20.421 13.9696 20.2803C13.829 20.1397 13.75 19.9489 13.75 19.75C13.75 15.8406 10.4968 14.4344 8.67808 13.9469C7.12183 15.9063 4.87183 17.5375 1.81558 17.5375C1.52496 17.5375 1.23433 17.5281 0.924959 17.5C0.726047 17.4801 0.543183 17.382 0.416596 17.2273C0.290009 17.0726 0.230068 16.8739 0.249959 16.675C0.26985 16.4761 0.367944 16.2932 0.522662 16.1666C0.677379 16.0401 0.876046 15.9801 1.07496 16C3.58746 16.2531 5.76246 15.2406 7.53433 12.9719L7.75933 12.6813H7.76871C8.67713 11.4139 9.36786 10.0039 9.81246 8.50938C6.17496 5.97813 3.85933 7.98438 3.75621 8.07813C3.60949 8.21235 3.41547 8.28281 3.21682 8.27402C3.01816 8.26523 2.83112 8.17791 2.69683 8.03125C2.62921 7.95919 2.57669 7.87433 2.54237 7.78167C2.50804 7.689 2.49261 7.5904 2.49698 7.49168C2.50135 7.39296 2.52543 7.29611 2.5678 7.20684C2.61017 7.11757 2.66998 7.03768 2.74371 6.97187C2.83746 6.8875 3.69058 6.12812 5.17183 5.8375C7.61871 5.36875 9.80308 6.57812 11.2093 7.675C13.4406 9.42813 15.1562 9.91563 16.2062 10.0281C17.2562 10.1406 17.9031 9.85 17.9125 9.85H17.9031C18.01 9.79365 18.1291 9.76466 18.25 9.76563C18.4489 9.76563 18.6396 9.84464 18.7803 9.9853C18.9209 10.1259 19 10.3167 19 10.5156C19.0022 10.6533 18.9656 10.7888 18.8943 10.9065C18.823 11.0243 18.7199 11.1195 18.5968 11.1813Z" fill="#0C437D"/>
</svg>
