<svg width="24" height="24" viewBox="0 0 24 24" fill="none" xmlns="http://www.w3.org/2000/svg">
<path d="M15.5343 18.2156C15.6752 18.3578 15.7542 18.5499 15.7542 18.75C15.7542 18.9501 15.6752 19.1422 15.5343 19.2844L12.5343 22.2844C12.391 22.423 12.1994 22.5005 12 22.5005C11.8006 22.5005 11.609 22.423 11.4656 22.2844L8.4656 19.2844C8.346 19.1387 8.28488 18.9537 8.29413 18.7654C8.30338 18.5771 8.38233 18.399 8.51563 18.2657C8.64893 18.1324 8.82705 18.0534 9.01534 18.0442C9.20363 18.0349 9.38862 18.096 9.53435 18.2156L11.25 19.9406V4.05938L9.53435 5.78438C9.38862 5.90397 9.20363 5.96509 9.01534 5.95584C8.82705 5.9466 8.64893 5.86764 8.51563 5.73434C8.38233 5.60104 8.30338 5.42292 8.29413 5.23463C8.28488 5.04634 8.346 4.86135 8.4656 4.71563L11.4656 1.71562C11.6078 1.57479 11.7998 1.49578 12 1.49578C12.2001 1.49578 12.3922 1.57479 12.5343 1.71562L15.5343 4.71563C15.6752 4.85782 15.7542 5.04986 15.7542 5.25C15.7542 5.45014 15.6752 5.64218 15.5343 5.78438C15.391 5.92299 15.1994 6.00048 15 6.00048C14.8006 6.00048 14.609 5.92299 14.4656 5.78438L12.75 4.05938V19.9406L14.4656 18.2156C14.6078 18.0748 14.7998 17.9958 15 17.9958C15.2001 17.9958 15.3922 18.0748 15.5343 18.2156Z" fill="#0C437D"/>
</svg>
