<svg width="24" height="24" viewBox="0 0 24 24" fill="none" xmlns="http://www.w3.org/2000/svg">
<path d="M12.7499 3.75V20.25C12.7499 20.4489 12.6709 20.6397 12.5303 20.7803C12.3896 20.921 12.1989 21 11.9999 21C11.801 21 11.6103 20.921 11.4696 20.7803C11.329 20.6397 11.2499 20.4489 11.2499 20.25V3.75C11.2499 3.55109 11.329 3.36032 11.4696 3.21967C11.6103 3.07902 11.801 3 11.9999 3C12.1989 3 12.3896 3.07902 12.5303 3.21967C12.6709 3.36032 12.7499 3.55109 12.7499 3.75ZM8.99995 11.25H3.30932L5.03432 9.53437C5.15392 9.38865 5.21504 9.20366 5.20579 9.01537C5.19654 8.82708 5.11759 8.64896 4.98429 8.51566C4.85099 8.38236 4.67287 8.3034 4.48458 8.29416C4.29629 8.28491 4.11129 8.34603 3.96557 8.46563L0.965572 11.4656C0.824735 11.6078 0.745728 11.7999 0.745728 12C0.745728 12.2001 0.824735 12.3922 0.965572 12.5344L3.96557 15.5344C4.10893 15.673 4.30054 15.7505 4.49995 15.7505C4.69936 15.7505 4.89097 15.673 5.03432 15.5344C5.17516 15.3922 5.25417 15.2001 5.25417 15C5.25417 14.7999 5.17516 14.6078 5.03432 14.4656L3.30932 12.75H8.99995C9.19886 12.75 9.38963 12.671 9.53028 12.5303C9.67093 12.3897 9.74995 12.1989 9.74995 12C9.74995 11.8011 9.67093 11.6103 9.53028 11.4697C9.38963 11.329 9.19886 11.25 8.99995 11.25ZM23.0343 11.4656L20.0343 8.46563C19.8886 8.34603 19.7036 8.28491 19.5153 8.29416C19.327 8.3034 19.1489 8.38236 19.0156 8.51566C18.8823 8.64896 18.8034 8.82708 18.7941 9.01537C18.7849 9.20366 18.846 9.38865 18.9656 9.53437L20.6906 11.25H14.9999C14.801 11.25 14.6103 11.329 14.4696 11.4697C14.329 11.6103 14.2499 11.8011 14.2499 12C14.2499 12.1989 14.329 12.3897 14.4696 12.5303C14.6103 12.671 14.801 12.75 14.9999 12.75H20.6906L18.9656 14.4656C18.8247 14.6078 18.7457 14.7999 18.7457 15C18.7457 15.2001 18.8247 15.3922 18.9656 15.5344C19.1089 15.673 19.3005 15.7505 19.4999 15.7505C19.6994 15.7505 19.891 15.673 20.0343 15.5344L23.0343 12.5344C23.1752 12.3922 23.2542 12.2001 23.2542 12C23.2542 11.7999 23.1752 11.6078 23.0343 11.4656Z" fill="#0C437D"/>
</svg>
