<svg width="24" height="24" viewBox="0 0 24 24" fill="none" xmlns="http://www.w3.org/2000/svg">
<path d="M20.0343 17.0344L17.0343 20.0344C16.891 20.173 16.6994 20.2505 16.4999 20.2505C16.3005 20.2505 16.1089 20.173 15.9656 20.0344C15.8247 19.8922 15.7457 19.7001 15.7457 19.5C15.7457 19.2999 15.8247 19.1078 15.9656 18.9656L17.6906 17.25H4.49995C4.30103 17.25 4.11027 17.171 3.96962 17.0303C3.82896 16.8897 3.74995 16.6989 3.74995 16.5C3.74995 16.3011 3.82896 16.1103 3.96962 15.9697C4.11027 15.829 4.30103 15.75 4.49995 15.75H17.6906L15.9656 14.0344C15.846 13.8887 15.7849 13.7037 15.7941 13.5154C15.8034 13.3271 15.8823 13.149 16.0156 13.0157C16.1489 12.8824 16.327 12.8034 16.5153 12.7942C16.7036 12.7849 16.8886 12.846 17.0343 12.9656L20.0343 15.9656C20.1752 16.1078 20.2542 16.2999 20.2542 16.5C20.2542 16.7001 20.1752 16.8922 20.0343 17.0344ZM6.96557 11.0344C7.10893 11.173 7.30054 11.2505 7.49995 11.2505C7.69936 11.2505 7.89097 11.173 8.03432 11.0344C8.17516 10.8922 8.25417 10.7001 8.25417 10.5C8.25417 10.2999 8.17516 10.1078 8.03432 9.96563L6.30932 8.25H19.4999C19.6989 8.25 19.8896 8.17098 20.0303 8.03033C20.1709 7.88968 20.2499 7.69891 20.2499 7.5C20.2499 7.30109 20.1709 7.11032 20.0303 6.96967C19.8896 6.82902 19.6989 6.75 19.4999 6.75H6.30932L8.03432 5.03438C8.15392 4.88866 8.21504 4.70366 8.20579 4.51537C8.19654 4.32708 8.11759 4.14896 7.98429 4.01566C7.85099 3.88236 7.67287 3.80341 7.48458 3.79416C7.29629 3.78491 7.11129 3.84603 6.96557 3.96563L3.96557 6.96563C3.82474 7.10782 3.74573 7.29987 3.74573 7.5C3.74573 7.70014 3.82474 7.89218 3.96557 8.03438L6.96557 11.0344Z" fill="#0C437D"/>
</svg>
