<svg width="24" height="24" viewBox="0 0 24 24" fill="none" xmlns="http://www.w3.org/2000/svg">
<path d="M20.7844 8.03438C20.641 8.173 20.4494 8.25048 20.25 8.25048C20.0506 8.25048 19.859 8.173 19.7156 8.03438L16.5 4.80938V15.75C16.5 17.3413 15.8679 18.8674 14.7426 19.9926C13.6174 21.1179 12.0913 21.75 10.5 21.75C8.9087 21.75 7.38258 21.1179 6.25736 19.9926C5.13214 18.8674 4.5 17.3413 4.5 15.75V7.50001C4.5 7.3011 4.57902 7.11033 4.71967 6.96968C4.86032 6.82903 5.05109 6.75001 5.25 6.75001C5.44891 6.75001 5.63968 6.82903 5.78033 6.96968C5.92098 7.11033 6 7.3011 6 7.50001V15.75C6 16.9435 6.47411 18.0881 7.31802 18.932C8.16193 19.7759 9.30653 20.25 10.5 20.25C11.6935 20.25 12.8381 19.7759 13.682 18.932C14.5259 18.0881 15 16.9435 15 15.75V4.80938L11.7844 8.03438C11.6387 8.15398 11.4537 8.2151 11.2654 8.20585C11.0771 8.1966 10.899 8.11765 10.7657 7.98435C10.6324 7.85105 10.5534 7.67293 10.5442 7.48464C10.5349 7.29635 10.596 7.11135 10.7156 6.96563L15.2156 2.46563C15.3578 2.3248 15.5499 2.24579 15.75 2.24579C15.9501 2.24579 16.1422 2.3248 16.2844 2.46563L20.7844 6.96563C20.9252 7.10783 21.0042 7.29987 21.0042 7.50001C21.0042 7.70014 20.9252 7.89219 20.7844 8.03438Z" fill="#0C437D"/>
</svg>
