<svg width="24" height="24" viewBox="0 0 24 24" fill="none" xmlns="http://www.w3.org/2000/svg">
<path d="M19.1344 18.368C17.4452 20.0545 15.1558 21.0018 12.7687 21.0018C10.3817 21.0018 8.09231 20.0545 6.40312 18.368C6.26287 18.2274 6.1841 18.0369 6.1841 17.8383C6.1841 17.6397 6.26287 17.4492 6.40312 17.3086C6.4721 17.238 6.5545 17.1819 6.64546 17.1436C6.73642 17.1053 6.83412 17.0856 6.93281 17.0856C7.03151 17.0856 7.1292 17.1053 7.22017 17.1436C7.31113 17.1819 7.39352 17.238 7.4625 17.3086C8.51173 18.3567 9.84811 19.0701 11.3027 19.3589C12.7574 19.6476 14.2649 19.4986 15.6349 18.9307C17.0049 18.3627 18.1757 17.4015 18.9995 16.1683C19.8232 14.9351 20.2628 13.4854 20.2628 12.0024C20.2628 10.5193 19.8232 9.06963 18.9995 7.83644C18.1757 6.60326 17.0049 5.64196 15.6349 5.07406C14.2649 4.50615 12.7574 4.35714 11.3027 4.64585C9.84811 4.93457 8.51173 5.64804 7.4625 6.6961L5.55937 8.59923H8.25C8.44891 8.59923 8.63968 8.67825 8.78033 8.8189C8.92098 8.95955 9 9.15032 9 9.34923C9 9.54814 8.92098 9.73891 8.78033 9.87956C8.63968 10.0202 8.44891 10.0992 8.25 10.0992H3.75C3.55109 10.0992 3.36032 10.0202 3.21967 9.87956C3.07902 9.73891 3 9.54814 3 9.34923V4.84923C3 4.65032 3.07902 4.45955 3.21967 4.3189C3.36032 4.17825 3.55109 4.09923 3.75 4.09923C3.94891 4.09923 4.13968 4.17825 4.28033 4.3189C4.42098 4.45955 4.5 4.65032 4.5 4.84923V7.53985L6.40312 5.63673C8.09139 3.94846 10.3812 3 12.7687 3C15.1563 3 17.4461 3.94846 19.1344 5.63673C20.8226 7.325 21.7711 9.61478 21.7711 12.0024C21.7711 14.3899 20.8226 16.6797 19.1344 18.368Z" fill="#0C437D"/>
</svg>
