<svg width="19" height="19" viewBox="0 0 19 19" fill="none" xmlns="http://www.w3.org/2000/svg">
<path d="M18.2875 4.94062C18.776 4.34878 19.0191 3.59224 18.9668 2.82661C18.9146 2.06098 18.5709 1.34449 18.0065 0.824518C17.4421 0.304548 16.6999 0.0206382 15.9326 0.0311906C15.1652 0.0417431 14.4311 0.345955 13.8812 0.881249C13.8452 0.910957 13.8136 0.945686 13.7875 0.984374L11.2937 3.62812L3.50309 0.796874C3.36954 0.74603 3.22413 0.734909 3.08439 0.764851C2.94466 0.794793 2.81658 0.864521 2.71559 0.965624L0.465587 3.21562C0.387559 3.29545 0.327851 3.39131 0.290614 3.49655C0.253378 3.60178 0.239506 3.71386 0.249963 3.825C0.263766 3.93586 0.300998 4.04252 0.359188 4.13788C0.417377 4.23325 0.495192 4.31514 0.587463 4.37812L6.56871 8.3625L5.19059 9.75H3.24996C3.05043 9.74887 2.85846 9.82633 2.71559 9.96562L0.465587 12.2156C0.377759 12.3078 0.313881 12.4201 0.279556 12.5427C0.245232 12.6652 0.241508 12.7944 0.268713 12.9187C0.296906 13.0434 0.356491 13.1588 0.441811 13.254C0.527131 13.3491 0.635355 13.4209 0.756212 13.4625L4.32809 14.6719L5.53746 18.2437C5.57905 18.3646 5.65083 18.4728 5.74599 18.5582C5.84116 18.6435 5.95655 18.7031 6.08121 18.7312L6.24996 18.75C6.44912 18.7492 6.64037 18.672 6.78434 18.5344L9.03434 16.2844C9.17363 16.1415 9.25109 15.9495 9.24996 15.75V13.8281L10.6375 12.5719L14.6312 18.4219C14.6938 18.5137 14.7757 18.5907 14.8713 18.6474C14.9669 18.7041 15.0737 18.7391 15.1843 18.75C15.2938 18.7573 15.4036 18.7419 15.5068 18.7048C15.6101 18.6677 15.7046 18.6097 15.7843 18.5344L18.0343 16.2844C18.1354 16.1834 18.2052 16.0553 18.2351 15.9156C18.2651 15.7758 18.2539 15.6304 18.2031 15.4969L15.3718 7.70625L18.1656 5.08125C18.2133 5.041 18.2544 4.99355 18.2875 4.94062ZM17.0593 4.05937L17.0218 4.10625L13.9843 6.95625C13.8782 7.05594 13.8038 7.1847 13.7705 7.32643C13.7371 7.46816 13.7463 7.61657 13.7968 7.75312L16.6281 15.5531L15.3625 16.8281L11.3875 11.0156C11.3273 10.9265 11.2482 10.8517 11.1559 10.7966C11.0635 10.7415 10.9601 10.7074 10.8531 10.6969H10.7687C10.5818 10.6996 10.4021 10.7694 10.2625 10.8937L7.99371 12.9562C7.91852 13.0258 7.85816 13.1098 7.81627 13.2032C7.77438 13.2967 7.75183 13.3976 7.74996 13.5V15.4406L6.56871 16.6125L5.63121 13.8375C5.59422 13.7287 5.53271 13.6298 5.45144 13.5485C5.37016 13.4672 5.27129 13.4057 5.16246 13.3687L2.38746 12.4219L3.55934 11.25H5.49996C5.6995 11.2511 5.89146 11.1737 6.03434 11.0344L8.28434 8.78437C8.36236 8.70455 8.42207 8.60869 8.45931 8.50345C8.49655 8.39822 8.51042 8.28614 8.49996 8.175C8.48616 8.06414 8.44893 7.95748 8.39074 7.86212C8.33255 7.76675 8.25473 7.68486 8.16246 7.62187L2.18121 3.6375L3.44684 2.37187L11.2468 5.20312C11.3834 5.25366 11.5318 5.26283 11.6735 5.22948C11.8153 5.19613 11.944 5.12175 12.0437 5.01562L15.0156 1.875L15.0343 1.84687C15.3233 1.60838 15.6906 1.48588 16.0649 1.50321C16.4392 1.52054 16.7936 1.67645 17.0593 1.94062C17.1994 2.07923 17.3105 2.24423 17.3864 2.42606C17.4622 2.6079 17.5013 2.80297 17.5013 3C17.5013 3.19703 17.4622 3.3921 17.3864 3.57393C17.3105 3.75577 17.1994 3.92077 17.0593 4.05937Z" fill="#0C437D"/>
</svg>
