<svg width="24" height="24" viewBox="0 0 24 24" fill="none" xmlns="http://www.w3.org/2000/svg">
<path d="M12.75 3.75V20.25C12.75 20.4489 12.671 20.6397 12.5303 20.7803C12.3897 20.921 12.1989 21 12 21C11.8011 21 11.6103 20.921 11.4697 20.7803C11.329 20.6397 11.25 20.4489 11.25 20.25V3.75C11.25 3.55109 11.329 3.36032 11.4697 3.21967C11.6103 3.07902 11.8011 3 12 3C12.1989 3 12.3897 3.07902 12.5303 3.21967C12.671 3.36032 12.75 3.55109 12.75 3.75ZM6.53437 8.46563C6.38865 8.34603 6.20366 8.28491 6.01537 8.29416C5.82708 8.3034 5.64896 8.38236 5.51566 8.51566C5.38236 8.64896 5.3034 8.82708 5.29416 9.01537C5.28491 9.20366 5.34603 9.38865 5.46562 9.53437L7.19062 11.25H1.5C1.30109 11.25 1.11032 11.329 0.96967 11.4697C0.829018 11.6103 0.75 11.8011 0.75 12C0.75 12.1989 0.829018 12.3897 0.96967 12.5303C1.11032 12.671 1.30109 12.75 1.5 12.75H7.19062L5.46562 14.4656C5.32479 14.6078 5.24578 14.7999 5.24578 15C5.24578 15.2001 5.32479 15.3922 5.46562 15.5344C5.60898 15.673 5.80059 15.7505 6 15.7505C6.19941 15.7505 6.39102 15.673 6.53437 15.5344L9.53437 12.5344C9.67521 12.3922 9.75422 12.2001 9.75422 12C9.75422 11.7999 9.67521 11.6078 9.53437 11.4656L6.53437 8.46563ZM22.5 11.25H16.8094L18.5344 9.53437C18.654 9.38865 18.7151 9.20366 18.7058 9.01537C18.6966 8.82708 18.6176 8.64896 18.4843 8.51566C18.351 8.38236 18.1729 8.3034 17.9846 8.29416C17.7963 8.28491 17.6113 8.34603 17.4656 8.46563L14.4656 11.4656C14.3248 11.6078 14.2458 11.7999 14.2458 12C14.2458 12.2001 14.3248 12.3922 14.4656 12.5344L17.4656 15.5344C17.609 15.673 17.8006 15.7505 18 15.7505C18.1994 15.7505 18.391 15.673 18.5344 15.5344C18.6752 15.3922 18.7542 15.2001 18.7542 15C18.7542 14.7999 18.6752 14.6078 18.5344 14.4656L16.8094 12.75H22.5C22.6989 12.75 22.8897 12.671 23.0303 12.5303C23.171 12.3897 23.25 12.1989 23.25 12C23.25 11.8011 23.171 11.6103 23.0303 11.4697C22.8897 11.329 22.6989 11.25 22.5 11.25Z" fill="#0C437D"/>
</svg>
