<svg width="24" height="24" viewBox="0 0 24 24" fill="none" xmlns="http://www.w3.org/2000/svg">
<path d="M20.25 6H16.4344C16.2539 4.95477 15.71 4.00689 14.8986 3.32364C14.0873 2.6404 13.0607 2.26572 12 2.26572C10.9393 2.26572 9.91269 2.6404 9.10136 3.32364C8.29002 4.00689 7.74611 4.95477 7.56562 6H3.75C3.35218 6 2.97064 6.15804 2.68934 6.43934C2.40804 6.72065 2.25 7.10218 2.25 7.5V19.5C2.25 19.8978 2.40804 20.2794 2.68934 20.5607C2.97064 20.842 3.35218 21 3.75 21H20.25C20.6478 21 21.0294 20.842 21.3107 20.5607C21.592 20.2794 21.75 19.8978 21.75 19.5V7.5C21.75 7.10218 21.592 6.72065 21.3107 6.43934C21.0294 6.15804 20.6478 6 20.25 6ZM12 3.75C12.6649 3.75127 13.3107 3.97273 13.8365 4.37979C14.3623 4.78685 14.7385 5.35658 14.9062 6H9.09375C9.26154 5.35658 9.6377 4.78685 10.1635 4.37979C10.6893 3.97273 11.3351 3.75127 12 3.75ZM20.25 19.5H3.75V7.5H7.5V9.75C7.5 9.94891 7.57902 10.1397 7.71967 10.2803C7.86032 10.421 8.05109 10.5 8.25 10.5C8.44891 10.5 8.63968 10.421 8.78033 10.2803C8.92098 10.1397 9 9.94891 9 9.75V7.5H15V9.75C15 9.94891 15.079 10.1397 15.2197 10.2803C15.3603 10.421 15.5511 10.5 15.75 10.5C15.9489 10.5 16.1397 10.421 16.2803 10.2803C16.421 10.1397 16.5 9.94891 16.5 9.75V7.5H20.25V19.5Z" fill="#0C437D"/>
</svg>
