<svg width="24" height="24" viewBox="0 0 24 24" fill="none" xmlns="http://www.w3.org/2000/svg">
<path d="M19.5 5.25H16.9031L15.6281 3.3375C15.5603 3.23293 15.4672 3.14718 15.3574 3.08818C15.2476 3.02919 15.1246 2.99886 15 3H9C8.87536 2.99886 8.75245 3.02919 8.64265 3.08818C8.53285 3.14718 8.43971 3.23293 8.37188 3.3375L7.09687 5.25H4.5C3.90402 5.25247 3.33316 5.49031 2.91174 5.91174C2.49031 6.33316 2.25247 6.90402 2.25 7.5V18C2.25247 18.596 2.49031 19.1668 2.91174 19.5883C3.33316 20.0097 3.90402 20.2475 4.5 20.25H19.5C20.096 20.2475 20.6668 20.0097 21.0883 19.5883C21.5097 19.1668 21.7475 18.596 21.75 18V7.5C21.7475 6.90402 21.5097 6.33316 21.0883 5.91174C20.6668 5.49031 20.096 5.25247 19.5 5.25ZM20.25 18C20.25 18.1989 20.171 18.3897 20.0303 18.5303C19.8897 18.671 19.6989 18.75 19.5 18.75H4.5C4.30109 18.75 4.11032 18.671 3.96967 18.5303C3.82902 18.3897 3.75 18.1989 3.75 18V7.5C3.75 7.30109 3.82902 7.11032 3.96967 6.96967C4.11032 6.82902 4.30109 6.75 4.5 6.75H7.5C7.62464 6.75114 7.74755 6.72081 7.85735 6.66182C7.96715 6.60282 8.06029 6.51707 8.12812 6.4125L9.40313 4.5H14.5969L15.8719 6.4125C15.9397 6.51707 16.0328 6.60282 16.1426 6.66182C16.2524 6.72081 16.3754 6.75114 16.5 6.75H19.5C19.6989 6.75 19.8897 6.82902 20.0303 6.96967C20.171 7.11032 20.25 7.30109 20.25 7.5V18ZM12 8.25C11.1842 8.25 10.3866 8.49193 9.70827 8.94519C9.02992 9.39845 8.50121 10.0427 8.189 10.7964C7.87679 11.5502 7.7951 12.3796 7.95426 13.1797C8.11343 13.9799 8.50629 14.7149 9.08318 15.2918C9.66008 15.8687 10.3951 16.2616 11.1953 16.4207C11.9954 16.5799 12.8248 16.4982 13.5786 16.186C14.3323 15.8738 14.9766 15.3451 15.4298 14.6667C15.8831 13.9884 16.125 13.1908 16.125 12.375C16.125 11.281 15.6904 10.2318 14.9168 9.45818C14.1432 8.6846 13.094 8.25 12 8.25ZM12 15C11.4808 15 10.9733 14.846 10.5416 14.5576C10.1099 14.2692 9.7735 13.8592 9.57482 13.3795C9.37614 12.8999 9.32415 12.3721 9.42544 11.8629C9.52672 11.3537 9.77673 10.886 10.1438 10.5188C10.511 10.1517 10.9787 9.90172 11.4879 9.80044C11.9971 9.69915 12.5249 9.75114 13.0045 9.94982C13.4842 10.1485 13.8942 10.4849 14.1826 10.9166C14.471 11.3483 14.625 11.8558 14.625 12.375C14.6225 13.0704 14.3452 13.7367 13.8534 14.2284C13.3617 14.7202 12.6954 14.9975 12 15Z" fill="#0C437D"/>
</svg>
