<svg width="24" height="24" viewBox="0 0 24 24" fill="none" xmlns="http://www.w3.org/2000/svg">
<path d="M12 21.75C10.3613 21.7518 8.74877 21.339 7.31252 20.55L4.50002 21.3469C4.24374 21.4212 3.9722 21.4254 3.71375 21.359C3.4553 21.2926 3.21942 21.158 3.03073 20.9693C2.84204 20.7806 2.70746 20.5447 2.64105 20.2863C2.57463 20.0278 2.57881 19.7563 2.65315 19.5L3.45002 16.6875C2.42258 14.8136 2.03927 12.6541 2.35905 10.5411C2.67883 8.42805 3.68399 6.47863 5.2199 4.99268C6.75581 3.50673 8.73739 2.56657 10.8598 2.31681C12.9822 2.06705 15.1279 2.52154 16.9668 3.61036C18.8057 4.69918 20.236 6.36202 21.0375 8.34307C21.8391 10.3241 21.9675 12.5137 21.4031 14.5749C20.8388 16.6361 19.6128 18.4547 17.9139 19.7511C16.2149 21.0475 14.1371 21.7498 12 21.75ZM7.40627 18.9937C7.54095 18.9959 7.673 19.0313 7.79065 19.0969C9.51933 20.1221 11.5628 20.481 13.5374 20.1063C15.512 19.7315 17.2819 18.6488 18.5147 17.0615C19.7475 15.4742 20.3585 13.4914 20.2329 11.4855C20.1074 9.47959 19.2539 7.58851 17.8327 6.16734C16.4115 4.74617 14.5204 3.89267 12.5145 3.76709C10.5086 3.64151 8.52584 4.2525 6.93852 5.48533C5.3512 6.71816 4.26851 8.48803 3.89374 10.4626C3.51898 12.4372 3.87791 14.4807 4.90315 16.2094C4.95429 16.2979 4.98727 16.3957 5.00014 16.4971C5.01302 16.5985 5.00554 16.7015 4.97815 16.8L4.08752 19.9125L7.20002 19.0219C7.2672 19.0033 7.33657 18.9938 7.40627 18.9937Z" fill="#0C437D"/>
</svg>
