<svg width="24" height="24" viewBox="0 0 24 24" fill="none" xmlns="http://www.w3.org/2000/svg">
<path d="M20.4656 7.1625C20.4559 7.15203 20.4494 7.13902 20.4469 7.125L20.4094 7.07812C19.0812 4.90891 16.9579 3.34461 14.4925 2.71896C12.0271 2.09331 9.41486 2.45586 7.21303 3.72924C5.01121 5.00263 3.39417 7.08604 2.70691 9.53497C2.01965 11.9839 2.3166 14.6044 3.53439 16.8375L3.55314 16.875L3.58126 16.9125C4.89701 19.1059 7.02196 20.6944 9.49803 21.3356C11.9741 21.9768 14.603 21.6193 16.818 20.3403C19.0329 19.0612 20.6566 16.963 21.3389 14.498C22.0213 12.0329 21.7076 9.39846 20.4656 7.1625ZM18.7406 7.24687L12.75 10.6969V3.7875C13.9391 3.89733 15.0903 4.26343 16.1245 4.86061C17.1586 5.45778 18.0511 6.27187 18.7406 7.24687ZM11.25 3.7875V11.5687L4.50939 15.4594C3.9561 14.2601 3.69883 12.9455 3.7592 11.6261C3.81958 10.3068 4.19585 9.02116 4.85636 7.87743C5.51688 6.7337 6.44234 5.76527 7.55493 5.05356C8.66753 4.34184 9.93473 3.90766 11.25 3.7875ZM12 20.25C10.6785 20.2496 9.37648 19.9317 8.20345 19.3232C7.03042 18.7147 6.02074 17.8332 5.25939 16.7531L19.4906 8.54062C20.0713 9.79773 20.3262 11.1808 20.2318 12.5623C20.1374 13.9438 19.6968 15.2793 18.9506 16.4458C18.2044 17.6122 17.1766 18.5721 15.9619 19.2369C14.7472 19.9018 13.3847 20.2502 12 20.25Z" fill="#0C437D"/>
</svg>
