<svg width="24" height="24" viewBox="0 0 24 24" fill="none" xmlns="http://www.w3.org/2000/svg">
<path d="M7.52813 10.8469C7.38764 10.7051 7.30921 10.5134 7.31009 10.3139C7.31097 10.1143 7.39109 9.92329 7.53281 9.78281C7.67454 9.64233 7.86626 9.5639 8.06581 9.56478C8.26537 9.56566 8.45639 9.64577 8.59687 9.7875L11.25 12.4406V3.75C11.25 3.55109 11.329 3.36032 11.4697 3.21967C11.6103 3.07902 11.8011 3 12 3C12.1989 3 12.3897 3.07902 12.5303 3.21967C12.671 3.36032 12.75 3.55109 12.75 3.75V12.4406L15.4031 9.7875C15.4727 9.71733 15.5554 9.66154 15.6465 9.62332C15.7376 9.58511 15.8354 9.56522 15.9342 9.56478C16.033 9.56435 16.1309 9.58338 16.2224 9.62079C16.3138 9.6582 16.397 9.71325 16.4672 9.78281C16.5374 9.85237 16.5932 9.93507 16.6314 10.0262C16.6696 10.1173 16.6895 10.2151 16.6899 10.3139C16.6903 10.4127 16.6713 10.5106 16.6339 10.6021C16.5965 10.6935 16.5414 10.7767 16.4719 10.8469L12.5344 14.7844C12.391 14.923 12.1994 15.0005 12 15.0005C11.8006 15.0005 11.609 14.923 11.4656 14.7844L7.52813 10.8469ZM20.25 13.5C20.0511 13.5 19.8603 13.579 19.7197 13.7197C19.579 13.8603 19.5 14.0511 19.5 14.25V19.5H4.5V14.25C4.5 14.0511 4.42098 13.8603 4.28033 13.7197C4.13968 13.579 3.94891 13.5 3.75 13.5C3.55109 13.5 3.36032 13.579 3.21967 13.7197C3.07902 13.8603 3 14.0511 3 14.25V19.5C3 19.8978 3.15804 20.2794 3.43934 20.5607C3.72064 20.842 4.10218 21 4.5 21H19.5C19.8978 21 20.2794 20.842 20.5607 20.5607C20.842 20.2794 21 19.8978 21 19.5V14.25C21 14.0511 20.921 13.8603 20.7803 13.7197C20.6397 13.579 20.4489 13.5 20.25 13.5Z" fill="#0C437D"/>
</svg>
