<svg width="24" height="24" viewBox="0 0 24 24" fill="none" xmlns="http://www.w3.org/2000/svg">
<path d="M19.5 3H8.55938C8.36244 2.99983 8.16743 3.03867 7.9856 3.1143C7.80376 3.18993 7.63872 3.30084 7.5 3.44063L3.44063 7.5C3.30084 7.63872 3.18993 7.80376 3.1143 7.9856C3.03867 8.16743 2.99983 8.36244 3 8.55938V19.5C3 19.8978 3.15804 20.2794 3.43934 20.5607C3.72064 20.842 4.10218 21 4.5 21H19.5C19.8978 21 20.2794 20.842 20.5607 20.5607C20.842 20.2794 21 19.8978 21 19.5V4.5C21 4.10218 20.842 3.72064 20.5607 3.43934C20.2794 3.15804 19.8978 3 19.5 3ZM19.5 19.5H4.5V8.55938L8.55938 4.5H14.25V6.75H9C8.80109 6.75 8.61032 6.82902 8.46967 6.96967C8.32902 7.11032 8.25 7.30109 8.25 7.5C8.25 7.69891 8.32902 7.88968 8.46967 8.03033C8.61032 8.17098 8.80109 8.25 9 8.25H15C15.1989 8.25 15.3897 8.17098 15.5303 8.03033C15.671 7.88968 15.75 7.69891 15.75 7.5V4.5H19.5V19.5ZM12 10.5C11.3325 10.5 10.68 10.6979 10.125 11.0688C9.56994 11.4396 9.13735 11.9667 8.88191 12.5834C8.62646 13.2001 8.55963 13.8787 8.68985 14.5334C8.82008 15.1881 9.14151 15.7895 9.61352 16.2615C10.0855 16.7335 10.6869 17.0549 11.3416 17.1852C11.9963 17.3154 12.6749 17.2485 13.2916 16.9931C13.9083 16.7376 14.4354 16.3051 14.8062 15.75C15.1771 15.195 15.375 14.5425 15.375 13.875C15.3725 12.9807 15.0162 12.1236 14.3838 11.4912C13.7514 10.8588 12.8943 10.5025 12 10.5ZM12 15.75C11.6292 15.75 11.2666 15.64 10.9583 15.434C10.65 15.228 10.4096 14.9351 10.2677 14.5925C10.1258 14.2499 10.0887 13.8729 10.161 13.5092C10.2334 13.1455 10.412 12.8114 10.6742 12.5492C10.9364 12.287 11.2705 12.1084 11.6342 12.036C11.9979 11.9637 12.3749 12.0008 12.7175 12.1427C13.0601 12.2846 13.353 12.525 13.559 12.8333C13.765 13.1416 13.875 13.5042 13.875 13.875C13.8725 14.3715 13.6742 14.847 13.3231 15.1981C12.972 15.5492 12.4965 15.7475 12 15.75Z" fill="#0C437D"/>
</svg>
