<svg width="24" height="24" viewBox="0 0 24 24" fill="none" xmlns="http://www.w3.org/2000/svg">
<path d="M20.25 6.74999H12.2531L9.64688 4.79999C9.38854 4.60277 9.07188 4.49721 8.74688 4.49999H3.75C3.35218 4.49999 2.97064 4.65803 2.68934 4.93933C2.40804 5.22064 2.25 5.60217 2.25 5.99999V18.75C2.25 19.1478 2.40804 19.5293 2.68934 19.8107C2.97064 20.092 3.35218 20.25 3.75 20.25H20.25C20.6478 20.25 21.0294 20.092 21.3107 19.8107C21.592 19.5293 21.75 19.1478 21.75 18.75V8.24999C21.75 7.85217 21.592 7.47064 21.3107 7.18933C21.0294 6.90803 20.6478 6.74999 20.25 6.74999ZM8.74688 8.99999H3.75V5.99999H8.74688L10.7531 7.49999L8.74688 8.99999ZM20.25 18.75H3.75V10.5H8.74688C9.07188 10.5028 9.38854 10.3972 9.64688 10.2L12.2531 8.24999H20.25V18.75Z" fill="#0C437D"/>
</svg>
