<svg width="24" height="24" viewBox="0 0 24 24" fill="none" xmlns="http://www.w3.org/2000/svg">
<path d="M7.12502 6.75V3C7.12502 2.80109 7.20403 2.61032 7.34469 2.46967C7.48534 2.32902 7.6761 2.25 7.87502 2.25C8.07393 2.25 8.26469 2.32902 8.40535 2.46967C8.546 2.61032 8.62502 2.80109 8.62502 3V6.75C8.62502 6.94891 8.546 7.13967 8.40535 7.28033C8.26469 7.42098 8.07393 7.5 7.87502 7.5C7.6761 7.5 7.48534 7.42098 7.34469 7.28033C7.20403 7.13967 7.12502 6.94891 7.12502 6.75ZM11.2406 2.87812C11.2246 2.78086 11.1896 2.68771 11.1376 2.60397C11.0856 2.52024 11.0176 2.44757 10.9375 2.39012C10.8574 2.33266 10.7668 2.29154 10.6708 2.26911C10.5749 2.24668 10.4754 2.24337 10.3781 2.25937C10.1817 2.2917 10.0062 2.40073 9.89014 2.56248C9.7741 2.72423 9.72707 2.92545 9.75939 3.12187L10.5 7.55625C10.5 8.25244 10.2235 8.92012 9.73117 9.4124C9.23889 9.90469 8.57121 10.1812 7.87502 10.1812C7.17882 10.1812 6.51114 9.90469 6.01886 9.4124C5.52658 8.92012 5.25002 8.25244 5.25002 7.55625L5.99064 3.12187C6.00665 3.02461 6.00334 2.92515 5.9809 2.82917C5.95847 2.73319 5.91735 2.64257 5.8599 2.56248C5.80244 2.48238 5.72977 2.4144 5.64604 2.36239C5.56231 2.31038 5.46915 2.27538 5.37189 2.25937C5.27463 2.24337 5.17517 2.24668 5.07919 2.26911C4.98321 2.29154 4.89258 2.33266 4.81249 2.39012C4.7324 2.44757 4.66441 2.52024 4.61241 2.60397C4.5604 2.68771 4.5254 2.78086 4.50939 2.87812L3.75939 7.37812C3.75162 7.41825 3.74847 7.45915 3.75002 7.5C3.7511 8.46396 4.08899 9.39724 4.70527 10.1385C5.32154 10.8797 6.17745 11.3823 7.12502 11.5594V21C7.12502 21.1989 7.20403 21.3897 7.34469 21.5303C7.48534 21.671 7.6761 21.75 7.87502 21.75C8.07393 21.75 8.26469 21.671 8.40535 21.5303C8.546 21.3897 8.62502 21.1989 8.62502 21V11.5594C9.57258 11.3823 10.4285 10.8797 11.0448 10.1385C11.661 9.39724 11.9989 8.46396 12 7.5C12.0016 7.45915 11.9984 7.41825 11.9906 7.37812L11.2406 2.87812ZM19.875 3V21C19.875 21.1989 19.796 21.3897 19.6553 21.5303C19.5147 21.671 19.3239 21.75 19.125 21.75C18.9261 21.75 18.7353 21.671 18.5947 21.5303C18.454 21.3897 18.375 21.1989 18.375 21V15.75H13.875C13.7689 15.7489 13.6641 15.7259 13.5673 15.6823C13.4705 15.6388 13.3837 15.5756 13.3125 15.4969C13.2427 15.4182 13.19 15.326 13.1578 15.2259C13.1255 15.1259 13.1143 15.0202 13.125 14.9156C13.3574 13.0379 13.7271 11.1798 14.2313 9.35625C15.3563 5.38125 16.9219 3 18.8719 2.29687C18.9848 2.25405 19.1066 2.2395 19.2264 2.25449C19.3463 2.26949 19.4607 2.31358 19.5596 2.38291C19.6585 2.45225 19.7389 2.54472 19.7939 2.65228C19.8489 2.75984 19.8767 2.87921 19.875 3ZM18.375 4.35C17.3344 5.30625 16.4156 7.14375 15.675 9.76875C15.2689 11.2419 14.9527 12.7384 14.7281 14.25H18.375V4.35Z" fill="#0C437D"/>
</svg>
