<svg width="24" height="24" viewBox="0 0 24 24" fill="none" xmlns="http://www.w3.org/2000/svg">
<path d="M23.0344 6.96563L19.2844 3.21563C19.1386 3.09603 18.9536 3.03491 18.7654 3.04416C18.5771 3.05341 18.3989 3.13236 18.2656 3.26566C18.1323 3.39896 18.0534 3.57708 18.0441 3.76537C18.0349 3.95366 18.096 4.13866 18.2156 4.28438L20.6906 6.75H16.5C15.1076 6.75 13.7722 7.30313 12.7877 8.28769C11.8031 9.27226 11.25 10.6076 11.25 12C11.25 12.9946 10.8549 13.9484 10.1516 14.6517C9.44838 15.3549 8.49455 15.75 7.49999 15.75H7.41561C7.23122 14.941 6.75526 14.2282 6.07865 13.7479C5.40204 13.2676 4.57219 13.0534 3.74763 13.1462C2.92307 13.2389 2.16159 13.6322 1.60863 14.2509C1.05567 14.8696 0.75 15.6702 0.75 16.5C0.75 17.3298 1.05567 18.1305 1.60863 18.7491C2.16159 19.3678 2.92307 19.7611 3.74763 19.8538C4.57219 19.9466 5.40204 19.7324 6.07865 19.2521C6.75526 18.7718 7.23122 18.059 7.41561 17.25H7.49999C8.89237 17.25 10.2277 16.6969 11.2123 15.7123C12.1969 14.7277 12.75 13.3924 12.75 12C12.75 11.0054 13.1451 10.0516 13.8483 9.34835C14.5516 8.64509 15.5054 8.25 16.5 8.25H20.6906L18.2156 10.7156C18.0748 10.8578 17.9958 11.0499 17.9958 11.25C17.9958 11.4501 18.0748 11.6422 18.2156 11.7844C18.359 11.923 18.5506 12.0005 18.75 12.0005C18.9494 12.0005 19.141 11.923 19.2844 11.7844L23.0344 8.03438C23.1752 7.89218 23.2542 7.70014 23.2542 7.5C23.2542 7.29987 23.1752 7.10782 23.0344 6.96563ZM4.12499 18.375C3.75415 18.375 3.39163 18.265 3.08329 18.059C2.77495 17.853 2.53463 17.5601 2.39271 17.2175C2.2508 16.8749 2.21367 16.4979 2.28601 16.1342C2.35836 15.7705 2.53694 15.4364 2.79916 15.1742C3.06138 14.912 3.39548 14.7334 3.75919 14.661C4.12291 14.5887 4.49991 14.6258 4.84252 14.7677C5.18513 14.9096 5.47796 15.15 5.68399 15.4583C5.89002 15.7667 5.99999 16.1292 5.99999 16.5C5.99752 16.9965 5.79919 17.472 5.44809 17.8231C5.09699 18.1742 4.62151 18.3725 4.12499 18.375Z" fill="#0C437D"/>
</svg>
