<svg width="24" height="24" viewBox="0 0 24 24" fill="none" xmlns="http://www.w3.org/2000/svg">
<path d="M17.625 3.75C17.236 3.75057 16.8518 3.837 16.5 4.00312V3.375C16.4968 2.75189 16.2721 2.15022 15.8661 1.6776C15.46 1.20498 14.899 0.892223 14.2835 0.795272C13.6679 0.69832 13.038 0.823494 12.5063 1.14841C11.9746 1.47332 11.5758 1.97678 11.3813 2.56875C10.996 2.35841 10.5639 2.24877 10.125 2.25C9.42957 2.25247 8.76333 2.52983 8.27158 3.02157C7.77983 3.51332 7.50248 4.17957 7.50001 4.875V11.9437L6.84376 10.8094C6.49939 10.2039 5.92862 9.76009 5.257 9.57549C4.58539 9.39088 3.86795 9.48063 3.26251 9.825C2.65707 10.1694 2.21323 10.7401 2.02862 11.4118C1.84401 12.0834 1.93377 12.8008 2.27813 13.4062C5.32501 19.8187 7.35001 22.5 12 22.5C14.1873 22.4975 16.2843 21.6275 17.8309 20.0809C19.3775 18.5343 20.2475 16.4373 20.25 14.25V6.375C20.2475 5.67957 19.9702 5.01332 19.4784 4.52157C18.9867 4.02983 18.3204 3.75247 17.625 3.75ZM18.75 14.25C18.7475 16.0394 18.0356 17.7549 16.7702 19.0202C15.5049 20.2856 13.7895 20.9975 12 21C10.1063 21 8.79376 20.4844 7.59376 19.2938C6.39376 18.1031 5.27813 16.2187 3.62813 12.7406L3.60001 12.6844C3.52421 12.5573 3.47513 12.4161 3.45579 12.2694C3.43644 12.1227 3.44724 11.9736 3.48751 11.8312C3.52473 11.6878 3.59037 11.5533 3.68056 11.4358C3.77074 11.3182 3.88363 11.22 4.01251 11.1469C4.27074 10.9978 4.57759 10.9573 4.86563 11.0344C5.00778 11.0717 5.14088 11.1375 5.2569 11.2277C5.37292 11.318 5.46944 11.4308 5.54063 11.5594L7.60313 15.1219C7.68721 15.2633 7.81495 15.3736 7.96711 15.4361C8.11928 15.4987 8.28765 15.5101 8.44688 15.4687C8.60622 15.4271 8.74712 15.3334 8.84729 15.2027C8.94746 15.072 9.0012 14.9116 9.00001 14.7469V4.875C9.00001 4.57663 9.11853 4.29048 9.32951 4.0795C9.54049 3.86853 9.82664 3.75 10.125 3.75C10.4234 3.75 10.7095 3.86853 10.9205 4.0795C11.1315 4.29048 11.25 4.57663 11.25 4.875V11.25C11.25 11.4489 11.329 11.6397 11.4697 11.7803C11.6103 11.921 11.8011 12 12 12C12.1989 12 12.3897 11.921 12.5303 11.7803C12.671 11.6397 12.75 11.4489 12.75 11.25V3.375C12.75 3.07663 12.8685 2.79048 13.0795 2.5795C13.2905 2.36853 13.5766 2.25 13.875 2.25C14.1734 2.25 14.4595 2.36853 14.6705 2.5795C14.8815 2.79048 15 3.07663 15 3.375V11.25C15 11.4489 15.079 11.6397 15.2197 11.7803C15.3603 11.921 15.5511 12 15.75 12C15.9489 12 16.1397 11.921 16.2803 11.7803C16.421 11.6397 16.5 11.4489 16.5 11.25V6.375C16.5 6.07663 16.6185 5.79048 16.8295 5.5795C17.0405 5.36853 17.3266 5.25 17.625 5.25C17.9234 5.25 18.2095 5.36853 18.4205 5.5795C18.6315 5.79048 18.75 6.07663 18.75 6.375V14.25Z" fill="#0C437D"/>
</svg>
