<svg width="24" height="24" viewBox="0 0 24 24" fill="none" xmlns="http://www.w3.org/2000/svg">
<path d="M20.6438 9.75L18.7688 6.49688C18.5456 6.11526 18.2301 5.79592 17.8511 5.56829C17.4722 5.34066 17.042 5.21205 16.6003 5.1943C16.1586 5.17656 15.7195 5.27026 15.3236 5.46676C14.9276 5.66326 14.5874 5.95626 14.3344 6.31875L12.7125 3.50625C12.3634 2.90311 11.7896 2.46285 11.1166 2.28187C10.4437 2.10089 9.7264 2.19393 9.12188 2.54063C8.74553 2.7628 8.4274 3.07128 8.19375 3.44063C7.88545 3.16428 7.51594 2.96507 7.11563 2.85938C6.7838 2.76658 6.4366 2.742 6.095 2.78712C5.7534 2.83223 5.42449 2.94611 5.12813 3.12187C4.82888 3.29293 4.56639 3.52146 4.35575 3.7943C4.14511 4.06715 3.99048 4.37893 3.90075 4.71174C3.81101 5.04455 3.78794 5.39181 3.83286 5.73356C3.87778 6.07531 3.98981 6.40481 4.1625 6.70312L4.48125 7.24688C4.09156 7.28014 3.71392 7.39855 3.375 7.59375C2.77598 7.94434 2.33952 8.51716 2.16047 9.18774C1.98141 9.85832 2.07423 10.5725 2.41875 11.175L6.35625 18C6.88945 18.9544 7.60702 19.7934 8.46726 20.468C9.32751 21.1427 10.3133 21.6397 11.3673 21.9301C12.4213 22.2204 13.5224 22.2984 14.6068 22.1595C15.6912 22.0206 16.7372 21.6676 17.684 21.1209C18.6307 20.5742 19.4594 19.8448 20.1218 18.975C20.7842 18.1053 21.2671 17.1126 21.5425 16.0546C21.8179 14.9966 21.8803 13.8944 21.726 12.8121C21.5717 11.7298 21.2038 10.6889 20.6438 9.75ZM20.0156 15.6188C19.7903 16.4759 19.3966 17.2797 18.8574 17.9831C18.3182 18.6865 17.6443 19.2754 16.875 19.7156C15.3243 20.61 13.4821 20.8527 11.7526 20.3904C10.0232 19.9282 8.54774 18.7988 7.65 17.25L3.7125 10.425C3.56332 10.1664 3.52297 9.85916 3.60033 9.57082C3.67769 9.28248 3.86642 9.03668 4.125 8.8875C4.38359 8.73832 4.69085 8.69796 4.97919 8.77532C5.26752 8.85268 5.51332 9.04141 5.6625 9.3L7.725 12.8719L7.78125 12.9562V12.975L7.82813 13.0219L7.84688 13.0406L7.9125 13.0969H7.92188L7.9875 13.1437H8.01563L8.07188 13.1719H8.09063L8.175 13.2H8.18438L8.25938 13.2188H8.46563L8.55 13.2H8.57813L8.63438 13.1813H8.6625L8.74688 13.1437C8.91862 13.0421 9.04344 12.8769 9.09432 12.6839C9.14519 12.4909 9.11805 12.2856 9.01875 12.1125L6.95625 8.54062L5.45625 5.94375C5.30718 5.68552 5.26672 5.37867 5.34375 5.09062C5.38097 4.94721 5.44662 4.81272 5.53681 4.69516C5.62699 4.5776 5.73987 4.47935 5.86875 4.40625C6.12698 4.25718 6.43383 4.21671 6.72188 4.29375C7.00845 4.37538 7.25317 4.56311 7.40625 4.81875L8.15625 6.13125H8.16563L10.6031 10.35C10.6393 10.4171 10.6869 10.4774 10.7438 10.5281C10.8762 10.6468 11.0466 10.7146 11.2244 10.7193C11.4022 10.724 11.5759 10.6653 11.7145 10.5538C11.8531 10.4423 11.9475 10.2851 11.9809 10.1104C12.0143 9.93569 11.9845 9.75479 11.8969 9.6L9.45938 5.38125C9.38551 5.25321 9.33758 5.11188 9.31834 4.96532C9.29909 4.81876 9.3089 4.66984 9.3472 4.52707C9.38551 4.3843 9.45156 4.25047 9.54158 4.13323C9.63161 4.01598 9.74384 3.91762 9.87188 3.84375C9.99992 3.76988 10.1413 3.72196 10.2878 3.70271C10.4344 3.68346 10.5833 3.69327 10.7261 3.73157C10.8688 3.76988 11.0027 3.83593 11.1199 3.92595C11.2371 4.01598 11.3355 4.12821 11.4094 4.25625L14.2219 9.12188L14.8125 10.1531C13.9955 10.833 13.4449 11.7797 13.258 12.826C13.071 13.8724 13.2597 14.9511 13.7906 15.8719C13.8978 16.0273 14.0596 16.1366 14.2438 16.178C14.428 16.2194 14.621 16.1898 14.7843 16.0951C14.9476 16.0004 15.0692 15.8476 15.1248 15.6672C15.1805 15.4868 15.166 15.2921 15.0844 15.1219C14.6868 14.4331 14.5791 13.6146 14.7847 12.8464C14.9904 12.0781 15.4927 11.423 16.1813 11.025L16.2469 10.9875L16.2938 10.95H16.3031L16.3594 10.8937L16.4063 10.8469L16.4438 10.8L16.4719 10.7437H16.4813L16.5 10.6969V10.6781C16.5104 10.6577 16.5168 10.6354 16.5188 10.6125H16.5281C16.5281 10.5938 16.5375 10.575 16.5375 10.5562C16.5375 10.5375 16.5375 10.5375 16.5469 10.5375V10.3406C16.5419 10.3184 16.5356 10.2965 16.5281 10.275C16.5262 10.2521 16.5198 10.2298 16.5094 10.2094V10.1906C16.5094 10.1719 16.5 10.1625 16.4906 10.1437L16.4625 10.0781L15.525 8.44687C15.4165 8.25433 15.367 8.03408 15.3829 7.81361C15.3988 7.59315 15.4792 7.38224 15.6142 7.20723C15.7492 7.03222 15.9328 6.90086 16.142 6.82954C16.3513 6.75823 16.5768 6.75013 16.7906 6.80625C16.9316 6.84349 17.0638 6.90821 17.1796 6.9967C17.2954 7.08518 17.3926 7.19569 17.4656 7.32187L19.3406 10.575C19.7789 11.3302 20.0641 12.1643 20.1799 13.0297C20.2957 13.8951 20.2399 14.7749 20.0156 15.6188ZM8.22188 22.9313C8.15109 23.0293 8.05816 23.1093 7.95064 23.1647C7.84313 23.22 7.72407 23.2493 7.60313 23.25C7.44982 23.2481 7.30023 23.2026 7.17188 23.1188C5.80831 22.1766 4.67407 20.9398 3.85313 19.5C3.79443 19.4148 3.75398 19.3185 3.73432 19.2169C3.71466 19.1154 3.71621 19.0109 3.73888 18.91C3.76154 18.8091 3.80484 18.7139 3.86604 18.6306C3.92723 18.5472 4.00502 18.4774 4.09449 18.4255C4.18397 18.3736 4.28321 18.3408 4.38597 18.3291C4.48874 18.3175 4.59281 18.3272 4.69164 18.3576C4.79047 18.3881 4.88193 18.4387 4.96028 18.5062C5.03862 18.5738 5.10215 18.6567 5.14688 18.75C5.86328 19.9964 6.84997 21.0664 8.03438 21.8812C8.19736 21.9965 8.30842 22.1713 8.34351 22.3678C8.3786 22.5643 8.3349 22.7667 8.22188 22.9313ZM15.75 2.90625C15.75 2.70734 15.829 2.51657 15.9697 2.37592C16.1103 2.23527 16.3011 2.15625 16.5 2.15625C17.4876 2.15751 18.4576 2.41792 19.3131 2.91146C20.1686 3.405 20.8796 4.11439 21.375 4.96875C21.4248 5.05402 21.4571 5.14838 21.4699 5.2463C21.4827 5.34422 21.4758 5.44371 21.4496 5.53893C21.4234 5.63414 21.3784 5.72315 21.3173 5.80072C21.2562 5.87829 21.1802 5.94286 21.0938 5.99063C20.9818 6.06157 20.8512 6.09747 20.7188 6.09375C20.5876 6.09329 20.4588 6.05841 20.3453 5.99261C20.2317 5.92681 20.1375 5.83238 20.0719 5.71875C19.7099 5.09174 19.1892 4.57106 18.5622 4.20901C17.9352 3.84697 17.224 3.65633 16.5 3.65625C16.3011 3.65625 16.1103 3.57723 15.9697 3.43658C15.829 3.29593 15.75 3.10516 15.75 2.90625Z" fill="#0C437D"/>
</svg>
