<svg width="22" height="18" viewBox="0 0 22 18" fill="none" xmlns="http://www.w3.org/2000/svg">
<path d="M5.75 9.75H2C1.80109 9.75 1.61032 9.67098 1.46967 9.53033C1.32902 9.38968 1.25 9.19891 1.25 9C1.25 8.80109 1.32902 8.61032 1.46967 8.46967C1.61032 8.32902 1.80109 8.25 2 8.25H5.34687L6.62188 6.3375C6.69003 6.23304 6.78316 6.14723 6.89284 6.08783C7.00251 6.02843 7.12527 5.99733 7.25 5.99733C7.37473 5.99733 7.49749 6.02843 7.60716 6.08783C7.71684 6.14723 7.80997 6.23304 7.87812 6.3375L10.25 9.9L11.1219 8.5875C11.1897 8.48293 11.2828 8.39718 11.3926 8.33818C11.5024 8.27919 11.6254 8.24885 11.75 8.25H14C14.1989 8.25 14.3897 8.32902 14.5303 8.46967C14.671 8.61032 14.75 8.80109 14.75 9C14.75 9.19891 14.671 9.38968 14.5303 9.53033C14.3897 9.67098 14.1989 9.75 14 9.75H12.1531L10.8781 11.6625C10.81 11.767 10.7168 11.8528 10.6072 11.9122C10.4975 11.9716 10.3747 12.0027 10.25 12.0027C10.1253 12.0027 10.0025 11.9716 9.89284 11.9122C9.78316 11.8528 9.69003 11.767 9.62188 11.6625L7.25 8.1L6.37812 9.4125C6.31029 9.51707 6.21715 9.60282 6.10735 9.66182C5.99755 9.72081 5.87464 9.75114 5.75 9.75ZM15.5 6.44236e-08C14.6267 6.44236e-08 13.7655 0.203316 12.9844 0.593847C12.2034 0.984378 11.524 1.5514 11 2.25C10.2916 1.30553 9.30408 0.607875 8.17719 0.255861C7.0503 -0.096152 5.84122 -0.0846785 4.72122 0.288657C3.60121 0.661992 2.62707 1.37826 1.93676 2.336C1.24646 3.29375 0.875 4.44441 0.875 5.625C0.875 5.76562 0.875 5.90625 0.884375 6.0375C0.89647 6.23732 0.986978 6.42428 1.13621 6.55771C1.28544 6.69114 1.48133 6.76025 1.68125 6.75C1.77981 6.74403 1.87622 6.71866 1.96495 6.67535C2.05368 6.63203 2.13298 6.57162 2.19831 6.49759C2.26363 6.42355 2.3137 6.33734 2.34563 6.24391C2.37756 6.15048 2.39073 6.05166 2.38437 5.95312C2.375 5.85 2.375 5.7375 2.375 5.625C2.37413 4.6714 2.70368 3.74695 3.30758 3.00894C3.91148 2.27093 4.75243 1.76495 5.68734 1.57708C6.62225 1.38922 7.59338 1.53107 8.43549 1.97851C9.27761 2.42595 9.93868 3.15134 10.3062 4.03125C10.3628 4.16881 10.4589 4.28646 10.5824 4.36926C10.7059 4.45206 10.8513 4.49627 11 4.49627C11.1487 4.49627 11.2941 4.45206 11.4176 4.36926C11.5411 4.28646 11.6372 4.16881 11.6937 4.03125C12.0613 3.15134 12.7224 2.42595 13.5645 1.97851C14.4066 1.53107 15.3777 1.38922 16.3127 1.57708C17.2476 1.76495 18.0885 2.27093 18.6924 3.00894C19.2963 3.74695 19.6259 4.6714 19.625 5.625C19.625 10.8 12.6875 15.3469 11 16.3781C10.0063 15.7781 7.20312 13.9594 5.06562 11.5031C5.00037 11.4286 4.92109 11.3677 4.8323 11.3239C4.74352 11.28 4.64696 11.2541 4.54816 11.2476C4.34861 11.2344 4.15199 11.301 4.00156 11.4328C3.85113 11.5646 3.75922 11.7507 3.74603 11.9503C3.73285 12.1498 3.79947 12.3464 3.93125 12.4969C6.74375 15.7031 10.475 17.8125 10.6344 17.9062C10.7464 17.9678 10.8722 18.0001 11 18.0001C11.1278 18.0001 11.2536 17.9678 11.3656 17.9062C13.0903 16.898 14.708 15.7169 16.1937 14.3812C19.4656 11.4375 21.125 8.49375 21.125 5.625C21.125 4.13316 20.5324 2.70242 19.4775 1.64752C18.4226 0.592632 16.9918 6.44236e-08 15.5 6.44236e-08Z" fill="#0C437D"/>
</svg>
