<svg width="24" height="24" viewBox="0 0 24 24" fill="none" xmlns="http://www.w3.org/2000/svg">
<path d="M14.625 10.875C14.625 11.0739 14.546 11.2647 14.4054 11.4053C14.2647 11.546 14.0739 11.625 13.875 11.625H11.625V13.875C11.625 14.0739 11.546 14.2647 11.4054 14.4053C11.2647 14.546 11.0739 14.625 10.875 14.625C10.6761 14.625 10.4853 14.546 10.3447 14.4053C10.204 14.2647 10.125 14.0739 10.125 13.875V11.625H7.87502C7.67611 11.625 7.48535 11.546 7.34469 11.4053C7.20404 11.2647 7.12502 11.0739 7.12502 10.875C7.12502 10.6761 7.20404 10.4853 7.34469 10.3447C7.48535 10.204 7.67611 10.125 7.87502 10.125H10.125V7.875C10.125 7.67609 10.204 7.48532 10.3447 7.34467C10.4853 7.20402 10.6761 7.125 10.875 7.125C11.0739 7.125 11.2647 7.20402 11.4054 7.34467C11.546 7.48532 11.625 7.67609 11.625 7.875V10.125H13.875C14.0739 10.125 14.2647 10.204 14.4054 10.3447C14.546 10.4853 14.625 10.6761 14.625 10.875ZM21.5344 21.5344C21.391 21.673 21.1994 21.7505 21 21.7505C20.8006 21.7505 20.609 21.673 20.4656 21.5344L16.4156 17.475C14.7099 18.9077 12.517 19.6266 10.2942 19.4817C8.07131 19.3368 5.9902 18.3394 4.48488 16.6975C2.97956 15.0555 2.16624 12.8958 2.21456 10.6688C2.26288 8.44173 3.1691 6.31932 4.74422 4.7442C6.31934 3.16908 8.44175 2.26286 10.6688 2.21454C12.8958 2.16622 15.0555 2.97953 16.6975 4.48486C18.3394 5.99018 19.3369 8.07128 19.4817 10.2941C19.6266 12.517 18.9077 14.7099 17.475 16.4156L21.5344 20.4656C21.6752 20.6078 21.7542 20.7999 21.7542 21C21.7542 21.2001 21.6752 21.3922 21.5344 21.5344ZM10.875 18C12.2842 18 13.6618 17.5821 14.8335 16.7992C16.0052 16.0163 16.9184 14.9035 17.4577 13.6016C17.9969 12.2997 18.138 10.8671 17.8631 9.48498C17.5882 8.10287 16.9096 6.83331 15.9132 5.83686C14.9167 4.84042 13.6472 4.16182 12.265 3.88691C10.8829 3.61199 9.45033 3.75308 8.1484 4.29236C6.84648 4.83163 5.73371 5.74486 4.9508 6.91656C4.1679 8.08826 3.75002 9.46581 3.75002 10.875C3.7525 12.7639 4.50397 14.5747 5.83963 15.9104C7.17529 17.2461 8.98612 17.9975 10.875 18Z" fill="#0C437D"/>
</svg>
