<svg width="24" height="24" viewBox="0 0 24 24" fill="none" xmlns="http://www.w3.org/2000/svg">
<path d="M19.7531 6.75H18.75V3.75C18.75 3.55109 18.671 3.36032 18.5303 3.21967C18.3897 3.07902 18.1989 3 18 3H6C5.80109 3 5.61032 3.07902 5.46967 3.21967C5.32902 3.36032 5.25 3.55109 5.25 3.75V6.75H4.24687C2.94375 6.75 1.875 7.7625 1.875 9V16.5C1.875 16.6989 1.95402 16.8897 2.09467 17.0303C2.23532 17.171 2.42609 17.25 2.625 17.25H5.25V20.625C5.25 20.8239 5.32902 21.0147 5.46967 21.1553C5.61032 21.296 5.80109 21.375 6 21.375H18C18.1989 21.375 18.3897 21.296 18.5303 21.1553C18.671 21.0147 18.75 20.8239 18.75 20.625V17.25H21.375C21.5739 17.25 21.7647 17.171 21.9053 17.0303C22.046 16.8897 22.125 16.6989 22.125 16.5V9C22.125 7.7625 21.0562 6.75 19.7531 6.75ZM6.75 4.5H17.25V6.75H6.75V4.5ZM17.25 19.875H6.75V15H17.25V19.875ZM20.625 15.75H18.75V14.25C18.75 14.0511 18.671 13.8603 18.5303 13.7197C18.3897 13.579 18.1989 13.5 18 13.5H6C5.80109 13.5 5.61032 13.579 5.46967 13.7197C5.32902 13.8603 5.25 14.0511 5.25 14.25V15.75H3.375V9C3.375 8.5875 3.76875 8.25 4.24687 8.25H19.7531C20.2312 8.25 20.625 8.5875 20.625 9V15.75ZM18.75 10.875C18.75 11.0975 18.684 11.315 18.5604 11.5C18.4368 11.685 18.2611 11.8292 18.0555 11.9144C17.85 11.9995 17.6238 12.0218 17.4055 11.9784C17.1873 11.935 16.9868 11.8278 16.8295 11.6705C16.6722 11.5132 16.565 11.3127 16.5216 11.0945C16.4782 10.8762 16.5005 10.65 16.5856 10.4445C16.6708 10.2389 16.815 10.0632 17 9.9396C17.185 9.81598 17.4025 9.75 17.625 9.75C17.9234 9.75 18.2095 9.86853 18.4205 10.0795C18.6315 10.2905 18.75 10.5766 18.75 10.875Z" fill="#0C437D"/>
</svg>
