<svg width="24" height="24" viewBox="0 0 24 24" fill="none" xmlns="http://www.w3.org/2000/svg">
<circle cx="12" cy="12" r="11.5" fill="white" stroke="#3C99DC"/>
<path d="M18.5 8H17V7.5C17 7.23478 16.8947 6.98043 16.7071 6.79289C16.5196 6.60536 16.2652 6.5 16 6.5H8.00002C7.73481 6.5 7.48045 6.60536 7.29292 6.79289C7.10538 6.98043 7.00002 7.23478 7.00002 7.5V8H5.49377C5.22856 8 4.9742 8.10536 4.78667 8.29289C4.59913 8.48043 4.49377 8.73478 4.49377 9V10C4.49377 10.663 4.75717 11.2989 5.22601 11.7678C5.69485 12.2366 6.33073 12.5 6.99377 12.5H7.24377C7.85002 14.3688 9.50628 15.7688 11.5 15.975V17.5H10C9.86742 17.5 9.74024 17.5527 9.64647 17.6464C9.5527 17.7402 9.50002 17.8674 9.50002 18C9.50002 18.1326 9.5527 18.2598 9.64647 18.3536C9.74024 18.4473 9.86742 18.5 10 18.5H14C14.1326 18.5 14.2598 18.4473 14.3536 18.3536C14.4473 18.2598 14.5 18.1326 14.5 18C14.5 17.8674 14.4473 17.7402 14.3536 17.6464C14.2598 17.5527 14.1326 17.5 14 17.5H12.5V15.975C13.4743 15.8793 14.3988 15.4987 15.158 14.8807C15.9172 14.2626 16.4774 13.4346 16.7688 12.5H17C17.6631 12.5 18.299 12.2366 18.7678 11.7678C19.2366 11.2989 19.5 10.663 19.5 10V9C19.5 8.73478 19.3947 8.48043 19.2071 8.29289C19.0196 8.10536 18.7652 8 18.5 8ZM6.99377 11.5C6.59595 11.5 6.21442 11.342 5.93311 11.0607C5.65181 10.7794 5.49377 10.3978 5.49377 10V9H7.00002V10.9437C7.00092 11.1296 7.01135 11.3152 7.03127 11.5H6.99377ZM14.8188 13.8375C14.4486 14.2072 14.009 14.5003 13.5253 14.6998C13.0416 14.8993 12.5233 15.0013 12 15H11.9688C9.78127 14.9812 8.00002 13.1625 8.00002 10.9437V7.5H16V11C16.002 11.5278 15.8986 12.0507 15.6957 12.5379C15.4929 13.0252 15.1947 13.467 14.8188 13.8375ZM18.5 10C18.4984 10.3973 18.3398 10.7779 18.0589 11.0588C17.7779 11.3398 17.3973 11.4984 17 11.5H16.975C16.9929 11.3339 17.0012 11.167 17 11V9H18.5V10Z" fill="#3C99DC"/>
</svg>
