<svg width="16" height="16" viewBox="0 0 16 16" fill="none" xmlns="http://www.w3.org/2000/svg">
<path d="M9.50005 5.5C9.89562 5.5 10.2823 5.3827 10.6112 5.16294C10.9401 4.94318 11.1964 4.63082 11.3478 4.26537C11.4992 3.89992 11.5388 3.49778 11.4616 3.10982C11.3845 2.72186 11.194 2.36549 10.9143 2.08579C10.6346 1.80608 10.2782 1.6156 9.89023 1.53843C9.50227 1.46126 9.10014 1.50087 8.73469 1.65224C8.36924 1.80362 8.05688 2.05996 7.83711 2.38886C7.61735 2.71776 7.50005 3.10444 7.50005 3.5C7.5017 4.02993 7.71294 4.53768 8.08766 4.91239C8.46238 5.28711 8.97013 5.49835 9.50005 5.5ZM9.50005 2.5C9.69784 2.5 9.89118 2.55865 10.0556 2.66853C10.2201 2.77841 10.3482 2.93459 10.4239 3.11732C10.4996 3.30004 10.5194 3.50111 10.4808 3.69509C10.4423 3.88907 10.347 4.06726 10.2072 4.20711C10.0673 4.34696 9.88913 4.4422 9.69514 4.48079C9.50116 4.51937 9.3001 4.49957 9.11737 4.42388C8.93464 4.34819 8.77847 4.22002 8.66858 4.05557C8.5587 3.89112 8.50005 3.69778 8.50005 3.5C8.50005 3.23478 8.60541 2.98043 8.79295 2.79289C8.98048 2.60536 9.23484 2.5 9.50005 2.5ZM13.7313 8.7875C13.6938 8.8125 13.2563 9.03125 12.4751 9.03125C11.6938 9.03125 10.3376 8.75625 8.72505 7.6375C8.47442 8.38386 8.13889 9.09897 7.72505 9.76875C8.30005 9.95625 9.02505 10.2625 9.67505 10.7563C10.8688 11.6625 11.5001 12.9563 11.5001 14.5C11.5001 14.6326 11.4474 14.7598 11.3536 14.8536C11.2598 14.9473 11.1327 15 11.0001 15C10.8674 15 10.7403 14.9473 10.6465 14.8536C10.5527 14.7598 10.5001 14.6326 10.5001 14.5C10.5001 11.8938 8.3313 10.9563 7.1188 10.6313C6.0813 11.9375 4.5813 13.025 2.5438 13.025C2.35005 13.025 2.1563 13.0188 1.95005 13C1.81745 12.9867 1.69554 12.9213 1.61115 12.8182C1.52675 12.7151 1.48679 12.5826 1.50005 12.45C1.51331 12.3174 1.57871 12.1955 1.68186 12.1111C1.785 12.0267 1.91745 11.9867 2.05005 12C3.72505 12.1688 5.17505 11.4938 6.3563 9.98125L6.5063 9.7875H6.51255C7.11817 8.94261 7.57865 8.00263 7.87505 7.00625C5.45005 5.31875 3.9063 6.65625 3.83755 6.71875C3.73974 6.80823 3.6104 6.85521 3.47796 6.84935C3.34552 6.84349 3.22083 6.78527 3.1313 6.6875C3.08622 6.63946 3.05121 6.58289 3.02833 6.52111C3.00544 6.45934 2.99516 6.3936 2.99807 6.32779C3.00098 6.26197 3.01703 6.19741 3.04528 6.13789C3.07353 6.07838 3.1134 6.02512 3.16255 5.98125C3.22505 5.925 3.7938 5.41875 4.7813 5.225C6.41255 4.9125 7.8688 5.71875 8.8063 6.45C10.2938 7.61875 11.4376 7.94375 12.1376 8.01875C12.8376 8.09375 13.2688 7.9 13.2751 7.9H13.2688C13.3401 7.86243 13.4195 7.84311 13.5001 7.84375C13.6327 7.84375 13.7598 7.89643 13.8536 7.9902C13.9474 8.08397 14.0001 8.21114 14.0001 8.34375C14.0016 8.43551 13.9772 8.52584 13.9296 8.60434C13.8821 8.68285 13.8133 8.74633 13.7313 8.7875Z" fill="#0C437D"/>
</svg>
