<svg width="24" height="24" viewBox="0 0 24 24" fill="none" xmlns="http://www.w3.org/2000/svg">
<path fill-rule="evenodd" clip-rule="evenodd" d="M5.95227 4.2921C6.34323 4.15526 6.77109 4.36127 6.90793 4.75223L8.12788 8.2378L11.983 8.15018C12.1848 8.1456 12.38 8.22256 12.5243 8.36367C12.6687 8.50478 12.75 8.69812 12.75 8.89999V14.5C12.75 14.6692 12.6928 14.8335 12.5877 14.966L10.3069 17.8418L7.32407 22.316C7.09431 22.6607 6.62865 22.7538 6.28401 22.524C5.93936 22.2943 5.84623 21.8286 6.076 21.484L9.076 16.984C9.08744 16.9668 9.09959 16.9501 9.11241 16.9339L11.25 14.2387V9.66723L7.61707 9.7498C7.29218 9.75718 6.9995 9.55449 6.89214 9.24775L5.49214 5.24775C5.3553 4.85679 5.56131 4.42893 5.95227 4.2921Z" fill="#0C437D"/>
<path fill-rule="evenodd" clip-rule="evenodd" d="M18.0478 4.2921C18.4387 4.42893 18.6447 4.85679 18.5079 5.24775L17.1079 9.24775C17.0005 9.55449 16.7079 9.75718 16.383 9.7498L12.75 9.66723V14.2387L14.8876 16.9339C14.9004 16.9501 14.9126 16.9668 14.924 16.984L17.924 21.484C18.1538 21.8286 18.0607 22.2943 17.716 22.524C17.3714 22.7538 16.9057 22.6607 16.676 22.316L13.6931 17.8418L11.4124 14.966C11.3072 14.8335 11.25 14.6692 11.25 14.5V8.89999C11.25 8.69812 11.3314 8.50478 11.4757 8.36367C11.6201 8.22256 11.8152 8.1456 12.017 8.15018L15.8722 8.2378L17.0921 4.75223C17.2289 4.36127 17.6568 4.15526 18.0478 4.2921Z" fill="#0C437D"/>
<path fill-rule="evenodd" clip-rule="evenodd" d="M12 6C12.8284 6 13.5 5.32843 13.5 4.5C13.5 3.67157 12.8284 3 12 3C11.1716 3 10.5 3.67157 10.5 4.5C10.5 5.32843 11.1716 6 12 6ZM12 7.5C13.6569 7.5 15 6.15685 15 4.5C15 2.84315 13.6569 1.5 12 1.5C10.3431 1.5 9 2.84315 9 4.5C9 6.15685 10.3431 7.5 12 7.5Z" fill="#0C437D"/>
</svg>
