<svg width="24" height="24" viewBox="0 0 24 24" fill="white" xmlns="http://www.w3.org/2000/svg">
<path d="M21 7.19062L16.8094 2.99999C16.6708 2.85997 16.5058 2.74881 16.3239 2.67295C16.1421 2.59709 15.947 2.55803 15.75 2.55803C15.553 2.55803 15.3579 2.59709 15.1761 2.67295C14.9942 2.74881 14.8292 2.85997 14.6906 2.99999L3.44063 14.25C3.30084 14.3887 3.18993 14.5538 3.1143 14.7356C3.03867 14.9174 2.99983 15.1124 3 15.3094V19.5C3 19.8978 3.15804 20.2794 3.43934 20.5607C3.72064 20.842 4.10218 21 4.5 21H8.69063C8.88756 21.0002 9.08257 20.9613 9.26441 20.8857C9.44624 20.8101 9.61128 20.6992 9.75 20.5594L21 9.30937C21.2783 9.02697 21.4342 8.64644 21.4342 8.24999C21.4342 7.85355 21.2783 7.47301 21 7.19062ZM8.69063 19.5H4.5V15.3094L12.75 7.05937L16.9406 11.25L8.69063 19.5ZM18 10.1906L13.8094 5.99999L15.75 4.05937L19.9406 8.24999L18 10.1906Z" fill="#FFFFFF"/>
</svg>
