<svg width="24" height="24" viewBox="0 0 24 24" fill="none" xmlns="http://www.w3.org/2000/svg">
<path d="M6.50001 21.75C6.24314 21.7502 5.99082 21.6822 5.76876 21.5531C5.53533 21.4251 5.34074 21.2364 5.20545 21.0071C5.07017 20.7778 4.9992 20.5163 5.00001 20.25V3.75C4.9992 3.48375 5.07017 3.2222 5.20545 2.99288C5.34074 2.76356 5.53533 2.57494 5.76876 2.44688C5.99878 2.31285 6.26121 2.24459 6.52738 2.24955C6.79356 2.25451 7.05326 2.3325 7.27813 2.475L20.7781 10.7156C20.9994 10.8491 21.1824 11.0375 21.3095 11.2625C21.4365 11.4876 21.5033 11.7416 21.5033 12C21.5033 12.2584 21.4365 12.5124 21.3095 12.7375C21.1824 12.9625 20.9994 13.1509 20.7781 13.2844L7.27813 21.525C7.04554 21.6727 6.77554 21.7508 6.50001 21.75ZM6.50001 3.75V20.25L20 12L6.50001 3.75Z" fill="#0C437D"/>
</svg>
