<svg width="21" height="19" viewBox="0 0 21 19" fill="none" xmlns="http://www.w3.org/2000/svg">
<path d="M20.0937 0.15625C18.0968 0.15625 15.8468 1.2625 13.4281 3.42813C11.7312 4.94688 10.2781 6.68125 9.27495 7.99375C8.43355 7.73765 7.54389 7.68209 6.67717 7.83149C5.81045 7.9809 4.99074 8.33113 4.28365 8.85416C3.57657 9.37718 3.00174 10.0585 2.60518 10.8435C2.20862 11.6285 2.00135 12.4955 1.99995 13.375C1.99995 16.3 0.481198 17.6031 0.406198 17.6688C0.28406 17.7631 0.195393 17.8942 0.15321 18.0427C0.111028 18.1912 0.117551 18.3492 0.171823 18.4938C0.219772 18.6421 0.31385 18.7712 0.440336 18.8622C0.566821 18.9533 0.719096 19.0016 0.874948 19H7.62495C8.50445 18.9986 9.37141 18.7913 10.1564 18.3948C10.9415 17.9982 11.6228 17.4234 12.1458 16.7163C12.6688 16.0092 13.019 15.1895 13.1685 14.3228C13.3179 13.4561 13.2623 12.5664 13.0062 11.725C14.3187 10.7219 16.0531 9.26875 17.5718 7.57188C19.7374 5.15313 20.8437 2.90313 20.8437 0.90625C20.8437 0.707338 20.7647 0.516572 20.624 0.37592C20.4834 0.235268 20.2926 0.15625 20.0937 0.15625ZM7.62495 17.5H2.4312C2.96557 16.6094 3.49995 15.25 3.49995 13.375C3.49995 12.5592 3.74187 11.7616 4.19514 11.0833C4.6484 10.4049 5.29263 9.87621 6.04638 9.564C6.80012 9.25179 7.62952 9.1701 8.4297 9.32926C9.22987 9.48843 9.96487 9.88129 10.5418 10.4582C11.1187 11.0351 11.5115 11.7701 11.6707 12.5703C11.8299 13.3704 11.7482 14.1998 11.436 14.9536C11.1237 15.7073 10.595 16.3516 9.91668 16.8048C9.23832 17.2581 8.4408 17.5 7.62495 17.5ZM10.6624 8.65C10.9343 8.30313 11.2531 7.90938 11.6187 7.47813C12.3691 7.98476 13.0152 8.63085 13.5218 9.38125C13.0906 9.74688 12.6968 10.0656 12.3499 10.3375C11.916 9.65967 11.3403 9.08395 10.6624 8.65ZM14.6562 8.37813C14.0953 7.59213 13.4078 6.90467 12.6218 6.34375C14.4593 4.35625 16.9343 2.18125 19.2593 1.74063C18.8187 4.06563 16.6437 6.54063 14.6562 8.37813Z" fill="#0C437D"/>
</svg>
