<svg width="20" height="20" viewBox="0 0 20 20" fill="none" xmlns="http://www.w3.org/2000/svg">
<path d="M19.2344 3.28751L10.2344 0.287505C10.0817 0.240509 9.91836 0.240509 9.76564 0.287505L0.775019 3.28751H0.756269L0.662519 3.33438H0.653144L0.559394 3.39063C0.559394 3.4 0.550019 3.4 0.540644 3.40938L0.465644 3.47501L0.400019 3.55C0.400019 3.55938 0.390644 3.55938 0.390644 3.56876L0.334394 3.65313C0.334394 3.6625 0.334394 3.6625 0.325019 3.67188L0.287519 3.75626L0.259394 3.85938V3.8875C0.250147 3.92424 0.24698 3.96224 0.250019 4V11.5C0.250019 11.6989 0.329037 11.8897 0.469689 12.0303C0.610342 12.171 0.801107 12.25 1.00002 12.25C1.19893 12.25 1.3897 12.171 1.53035 12.0303C1.671 11.8897 1.75002 11.6989 1.75002 11.5V5.04063L4.90002 6.09063C4.30823 7.03788 3.99624 8.1331 4.00002 9.25C4.00036 10.2658 4.2586 11.2649 4.75051 12.1536C5.24243 13.0423 5.95193 13.7916 6.81252 14.3313C5.02414 15.0078 3.49739 16.2358 2.45314 17.8375C2.34671 18.0058 2.31065 18.2092 2.35273 18.4039C2.39482 18.5985 2.51168 18.7688 2.67814 18.8781C2.75983 18.9323 2.85145 18.9696 2.94769 18.9881C3.04393 19.0066 3.14288 19.0057 3.2388 18.9857C3.33472 18.9656 3.42571 18.9267 3.50649 18.8713C3.58727 18.8158 3.65623 18.7448 3.70939 18.6625C4.39014 17.6139 5.32221 16.7521 6.42085 16.1555C7.51949 15.5589 8.74984 15.2464 10 15.2464C11.2502 15.2464 12.4806 15.5589 13.5792 16.1555C14.6778 16.7521 15.6099 17.6139 16.2906 18.6625C16.3591 18.7665 16.4524 18.8518 16.562 18.9107C16.6717 18.9696 16.7943 19.0003 16.9188 19C17.0624 19.0015 17.2031 18.959 17.3219 18.8781C17.4884 18.7688 17.6052 18.5985 17.6473 18.4039C17.6894 18.2092 17.6533 18.0058 17.5469 17.8375C16.5027 16.2358 14.9759 15.0078 13.1875 14.3313C14.0481 13.7916 14.7576 13.0423 15.2495 12.1536C15.7414 11.2649 15.9997 10.2658 16 9.25C16.0038 8.1331 15.6918 7.03788 15.1 6.09063L19.2344 4.7125C19.3844 4.66319 19.5151 4.56775 19.6077 4.43981C19.7003 4.31187 19.7502 4.15795 19.7502 4C19.7502 3.84206 19.7003 3.68814 19.6077 3.5602C19.5151 3.43226 19.3844 3.33682 19.2344 3.28751ZM14.5 9.25C14.5 10.4435 14.0259 11.5881 13.182 12.432C12.3381 13.2759 11.1935 13.75 10 13.75C8.80655 13.75 7.66195 13.2759 6.81804 12.432C5.97413 11.5881 5.50002 10.4435 5.50002 9.25C5.50183 8.28976 5.80698 7.35463 6.37189 6.57813L9.76564 7.7125C9.91788 7.76259 10.0822 7.76259 10.2344 7.7125L13.6281 6.57813C14.1931 7.35463 14.4982 8.28976 14.5 9.25ZM13.6281 5.00313H13.6188L10 6.2125L6.38127 5.00313H6.37189L3.37189 4L10 1.7875L16.6281 4L13.6281 5.00313Z" fill="#0C437D"/>
</svg>
