<svg width="22" height="22" viewBox="0 0 22 22" fill="none" xmlns="http://www.w3.org/2000/svg">
<path d="M20.5718 9.59375L14.5812 7.41875L12.4062 1.42813C12.2997 1.14106 12.1078 0.893481 11.8564 0.718648C11.605 0.543815 11.3062 0.450104 11 0.450104C10.6938 0.450104 10.3949 0.543815 10.1435 0.718648C9.89213 0.893481 9.70028 1.14106 9.59372 1.42813L7.41872 7.41875L1.4281 9.59375C1.14103 9.70031 0.89345 9.89216 0.718617 10.1435C0.543784 10.3949 0.450073 10.6938 0.450073 11C0.450073 11.3062 0.543784 11.6051 0.718617 11.8565C0.89345 12.1078 1.14103 12.2997 1.4281 12.4063L7.41872 14.5813L9.59372 20.5719C9.70028 20.8589 9.89213 21.1065 10.1435 21.2814C10.3949 21.4562 10.6938 21.5499 11 21.5499C11.3062 21.5499 11.605 21.4562 11.8564 21.2814C12.1078 21.1065 12.2997 20.8589 12.4062 20.5719L14.5812 14.5813L20.5718 12.4063C20.8589 12.2997 21.1065 12.1078 21.2813 11.8565C21.4562 11.6051 21.5499 11.3062 21.5499 11C21.5499 10.6938 21.4562 10.3949 21.2813 10.1435C21.1065 9.89216 20.8589 9.70031 20.5718 9.59375ZM14.075 13.175C13.8672 13.2481 13.6784 13.3669 13.5227 13.5227C13.3669 13.6785 13.2481 13.8672 13.175 14.075L11 20.0563L8.82497 14.075C8.75187 13.8672 8.63305 13.6785 8.47728 13.5227C8.32152 13.3669 8.13277 13.2481 7.92497 13.175L1.94372 11L7.92497 8.825C8.13277 8.7519 8.32152 8.63308 8.47728 8.47731C8.63305 8.32155 8.75187 8.1328 8.82497 7.925L11 1.94375L13.175 7.925C13.2481 8.1328 13.3669 8.32155 13.5227 8.47731C13.6784 8.63308 13.8672 8.7519 14.075 8.825L20.0562 11L14.075 13.175Z" fill="#0C437D"/>
</svg>
