<svg width="24" height="24" viewBox="0 0 24 24" fill="none" xmlns="http://www.w3.org/2000/svg">
<path d="M12 3C10.22 3 8.47991 3.52784 6.99987 4.51677C5.51983 5.50571 4.36628 6.91131 3.68509 8.55585C3.0039 10.2004 2.82567 12.01 3.17294 13.7558C3.5202 15.5016 4.37737 17.1053 5.63604 18.364C6.89472 19.6226 8.49836 20.4798 10.2442 20.8271C11.99 21.1743 13.7996 20.9961 15.4442 20.3149C17.0887 19.6337 18.4943 18.4802 19.4832 17.0001C20.4722 15.5201 21 13.78 21 12C20.9951 9.61457 20.0452 7.32827 18.3585 5.64151C16.6717 3.95476 14.3854 3.00495 12 3ZM12 19.5C10.5166 19.5 9.0666 19.0601 7.83323 18.236C6.59986 17.4119 5.63856 16.2406 5.07091 14.8701C4.50325 13.4997 4.35473 11.9917 4.64411 10.5368C4.9335 9.08197 5.64781 7.74559 6.6967 6.6967C7.7456 5.64781 9.08197 4.9335 10.5368 4.64411C11.9917 4.35472 13.4997 4.50325 14.8701 5.0709C16.2406 5.63856 17.4119 6.59986 18.236 7.83322C19.0601 9.06659 19.5 10.5166 19.5 12C19.4975 13.9884 18.7066 15.8946 17.3006 17.3006C15.8946 18.7065 13.9884 19.4975 12 19.5ZM16.2469 7.75313C16.3877 7.89532 16.4667 8.08737 16.4667 8.2875C16.4667 8.48764 16.3877 8.67968 16.2469 8.82188L12.5344 12.5344C12.391 12.673 12.1994 12.7505 12 12.7505C11.8006 12.7505 11.609 12.673 11.4656 12.5344C11.3248 12.3922 11.2458 12.2001 11.2458 12C11.2458 11.7999 11.3248 11.6078 11.4656 11.4656L15.1781 7.75313C15.3203 7.61229 15.5124 7.53328 15.7125 7.53328C15.9126 7.53328 16.1047 7.61229 16.2469 7.75313ZM9 0.75C9 0.551088 9.07902 0.360322 9.21967 0.21967C9.36033 0.0790176 9.55109 0 9.75 0L14.25 0C14.4489 0 14.6397 0.0790176 14.7803 0.21967C14.921 0.360322 15 0.551088 15 0.75C15 0.948912 14.921 1.13968 14.7803 1.28033C14.6397 1.42098 14.4489 1.5 14.25 1.5H9.75C9.55109 1.5 9.36033 1.42098 9.21967 1.28033C9.07902 1.13968 9 0.948912 9 0.75Z" fill="#0C437D"/>
</svg>
