<svg width="24" height="24" viewBox="0 0 24 24" fill="none" xmlns="http://www.w3.org/2000/svg">
<path d="M23.325 13.725C23.1962 13.8243 23.0376 13.8771 22.875 13.875C22.7586 13.875 22.6437 13.8479 22.5396 13.7958C22.4355 13.7438 22.3449 13.6682 22.275 13.575C21.823 12.9674 21.2346 12.4744 20.5572 12.1357C19.8798 11.797 19.1323 11.6221 18.375 11.625C18.1761 11.625 17.9853 11.546 17.8447 11.4053C17.704 11.2647 17.625 11.0739 17.625 10.875C17.625 10.6761 17.704 10.4853 17.8447 10.3447C17.9853 10.204 18.1761 10.125 18.375 10.125C18.8019 10.1246 19.2198 10.0027 19.58 9.77364C19.9401 9.54459 20.2278 9.21781 20.4092 8.83144C20.5906 8.44508 20.6584 8.01507 20.6047 7.59162C20.5509 7.16817 20.3778 6.76875 20.1056 6.43998C19.8333 6.11122 19.4732 5.86668 19.0672 5.73491C18.6612 5.60313 18.2261 5.58957 17.8127 5.6958C17.3992 5.80202 17.0246 6.02366 16.7324 6.33482C16.4402 6.64599 16.2425 7.03385 16.1625 7.45313C16.1479 7.55339 16.1132 7.64966 16.0605 7.73614C16.0077 7.82261 15.9379 7.89749 15.8554 7.95627C15.7729 8.01504 15.6793 8.05649 15.5803 8.07811C15.4814 8.09973 15.379 8.10107 15.2795 8.08206C15.18 8.06305 15.0854 8.02407 15.0014 7.96748C14.9173 7.91089 14.8456 7.83786 14.7906 7.7528C14.7356 7.66774 14.6983 7.57242 14.6811 7.47257C14.664 7.37273 14.6672 7.27044 14.6906 7.17188C14.8019 6.58859 15.0501 6.04006 15.4148 5.57144C15.7795 5.10282 16.2502 4.7275 16.7883 4.47638C17.3264 4.22526 17.9165 4.10551 18.5099 4.127C19.1033 4.14848 19.6831 4.31058 20.2017 4.59995C20.7202 4.88933 21.1626 5.2977 21.4924 5.79147C21.8223 6.28523 22.0302 6.85027 22.099 7.44008C22.1678 8.02989 22.0955 8.6276 21.8881 9.18403C21.6808 9.74046 21.3443 10.2397 20.9063 10.6406C21.9256 11.0826 22.8113 11.784 23.475 12.675C23.5341 12.7538 23.5771 12.8435 23.6015 12.9389C23.626 13.0343 23.6314 13.1336 23.6175 13.2311C23.6035 13.3286 23.5705 13.4224 23.5204 13.5071C23.4702 13.5919 23.4038 13.6659 23.325 13.725ZM18.075 19.9219C18.1597 20.1013 18.1707 20.3067 18.1059 20.4941C18.0411 20.6816 17.9055 20.8362 17.7281 20.925C17.6247 20.9711 17.5132 20.9966 17.4 21C17.2595 20.999 17.122 20.9591 17.0028 20.8846C16.8836 20.8101 16.7875 20.704 16.725 20.5781C16.2925 19.6935 15.6204 18.948 14.785 18.4265C13.9497 17.9051 12.9847 17.6286 12 17.6286C11.0153 17.6286 10.0503 17.9051 9.21498 18.4265C8.37965 18.948 7.70748 19.6935 7.275 20.5781C7.23197 20.6668 7.17187 20.7462 7.09815 20.8116C7.02442 20.877 6.93852 20.9273 6.84535 20.9595C6.75219 20.9917 6.65358 21.0053 6.55518 20.9994C6.45678 20.9934 6.36051 20.9682 6.27188 20.925C6.0945 20.8362 5.95891 20.6816 5.89408 20.4941C5.82926 20.3067 5.84036 20.1013 5.925 19.9219C6.62202 18.4867 7.80425 17.3443 9.2625 16.6969C8.51608 16.1248 7.96766 15.3332 7.6943 14.4333C7.42094 13.5335 7.43637 12.5706 7.73843 11.68C8.04049 10.7894 8.61399 10.0158 9.37836 9.46786C10.1427 8.91996 11.0596 8.62532 12 8.62532C12.9405 8.62532 13.8573 8.91996 14.6216 9.46786C15.386 10.0158 15.9595 10.7894 16.2616 11.68C16.5636 12.5706 16.5791 13.5335 16.3057 14.4333C16.0323 15.3332 15.4839 16.1248 14.7375 16.6969C16.1958 17.3443 17.378 18.4867 18.075 19.9219ZM12 16.125C12.5933 16.125 13.1734 15.9491 13.6667 15.6194C14.1601 15.2898 14.5446 14.8212 14.7716 14.2731C14.9987 13.7249 15.0581 13.1217 14.9424 12.5397C14.8266 11.9578 14.5409 11.4232 14.1213 11.0037C13.7018 10.5841 13.1672 10.2984 12.5853 10.1827C12.0033 10.0669 11.4001 10.1263 10.852 10.3534C10.3038 10.5804 9.83524 10.965 9.5056 11.4583C9.17595 11.9516 9 12.5317 9 13.125C9.00248 13.9199 9.31934 14.6815 9.88141 15.2436C10.4435 15.8057 11.2051 16.1225 12 16.125ZM6.375 10.875C6.375 10.6761 6.29599 10.4853 6.15533 10.3447C6.01468 10.204 5.82392 10.125 5.625 10.125C5.19815 10.1246 4.78024 10.0027 4.42005 9.77364C4.05986 9.54459 3.77225 9.21781 3.59081 8.83144C3.40936 8.44508 3.34156 8.01507 3.39533 7.59162C3.44909 7.16817 3.62219 6.76875 3.89443 6.43998C4.16667 6.11122 4.52681 5.86668 4.93282 5.73491C5.33882 5.60313 5.77392 5.58957 6.18735 5.6958C6.60077 5.80202 6.97544 6.02366 7.26763 6.33482C7.55982 6.64599 7.75747 7.03385 7.8375 7.45313C7.85206 7.55339 7.88677 7.64966 7.93956 7.73614C7.99234 7.82261 8.06209 7.89749 8.14461 7.95627C8.22713 8.01504 8.3207 8.05649 8.41967 8.07811C8.51865 8.09973 8.62098 8.10107 8.72049 8.08206C8.82 8.06305 8.91462 8.02407 8.99866 7.96748C9.08269 7.91089 9.15438 7.83786 9.20942 7.7528C9.26445 7.66774 9.30168 7.57242 9.31886 7.47257C9.33604 7.37273 9.33282 7.27044 9.30938 7.17188C9.19811 6.58859 8.94992 6.04006 8.58523 5.57144C8.22054 5.10282 7.74977 4.7275 7.21168 4.47638C6.67358 4.22526 6.08355 4.10551 5.49013 4.127C4.89671 4.14848 4.31688 4.31058 3.79835 4.59995C3.27982 4.88933 2.83743 5.2977 2.50758 5.79147C2.17772 6.28523 1.96985 6.85027 1.90105 7.44008C1.83225 8.02989 1.90451 8.6276 2.11186 9.18403C2.31922 9.74046 2.65575 10.2397 3.09375 10.6406C2.07442 11.0826 1.18874 11.784 0.525003 12.675C0.405656 12.8341 0.35441 13.0342 0.382541 13.2311C0.410671 13.428 0.515873 13.6057 0.675003 13.725C0.803824 13.8243 0.962389 13.8771 1.125 13.875C1.24144 13.875 1.35627 13.8479 1.46041 13.7958C1.56455 13.7438 1.65514 13.6682 1.725 13.575C2.17705 12.9674 2.76545 12.4744 3.44284 12.1357C4.12022 11.797 4.86767 11.6221 5.625 11.625C5.82392 11.625 6.01468 11.546 6.15533 11.4053C6.29599 11.2647 6.375 11.0739 6.375 10.875Z" fill="#0C437D"/>
</svg>
