<svg width="24" height="24" viewBox="0 0 24 24" fill="none" xmlns="http://www.w3.org/2000/svg">
<path d="M19.2843 18.2156C19.4252 18.3578 19.5042 18.5499 19.5042 18.75C19.5042 18.9501 19.4252 19.1422 19.2843 19.2844C19.141 19.423 18.9494 19.5005 18.7499 19.5005C18.5505 19.5005 18.3589 19.423 18.2156 19.2844L11.9999 13.0594L5.78432 19.2844C5.64097 19.423 5.44936 19.5005 5.24995 19.5005C5.05054 19.5005 4.85893 19.423 4.71557 19.2844C4.57474 19.1422 4.49573 18.9501 4.49573 18.75C4.49573 18.5499 4.57474 18.3578 4.71557 18.2156L10.9406 12L4.71557 5.78438C4.59597 5.63866 4.53486 5.45366 4.5441 5.26537C4.55335 5.07708 4.6323 4.89896 4.7656 4.76566C4.89891 4.63236 5.07702 4.55341 5.26531 4.54416C5.4536 4.53491 5.6386 4.59603 5.78432 4.71563L11.9999 10.9406L18.2156 4.71563C18.3613 4.59603 18.5463 4.53491 18.7346 4.54416C18.9229 4.55341 19.101 4.63236 19.2343 4.76566C19.3676 4.89896 19.4465 5.07708 19.4558 5.26537C19.465 5.45366 19.4039 5.63866 19.2843 5.78438L13.0593 12L19.2843 18.2156Z" fill="#0C437D"/>
</svg>
