<svg width="22" height="22" viewBox="0 0 22 22" fill="none" xmlns="http://www.w3.org/2000/svg">
<path d="M20.7499 6.19062L15.8093 1.25C15.5269 0.971746 15.1464 0.815769 14.7499 0.815769C14.3535 0.815769 13.973 0.971746 13.6906 1.25L7.46557 7.46562L4.09057 10.8406L1.24995 13.6906C1.10992 13.8292 0.998766 13.9942 0.922905 14.1761C0.847043 14.3579 0.807983 14.553 0.807983 14.75C0.807983 14.947 0.847043 15.1421 0.922905 15.3239C0.998766 15.5058 1.10992 15.6708 1.24995 15.8094L6.19057 20.75C6.32918 20.89 6.49418 21.0012 6.67601 21.077C6.85785 21.1529 7.05292 21.192 7.24995 21.192C7.44698 21.192 7.64205 21.1529 7.82388 21.077C8.00572 21.0012 8.17071 20.89 8.30932 20.75L20.7499 8.30937C20.89 8.17076 21.0011 8.00577 21.077 7.82393C21.1529 7.6421 21.1919 7.44703 21.1919 7.25C21.1919 7.05297 21.1529 6.8579 21.077 6.67606C21.0011 6.49423 20.89 6.32923 20.7499 6.19062ZM19.6906 7.25L7.24995 19.6906L2.30932 14.75L4.62495 12.4344L7.09057 14.9094C7.23393 15.048 7.42554 15.1255 7.62495 15.1255C7.82436 15.1255 8.01597 15.048 8.15932 14.9094C8.30016 14.7672 8.37917 14.5751 8.37917 14.375C8.37917 14.1749 8.30016 13.9828 8.15932 13.8406L5.68432 11.375L7.99995 9.05937L10.4656 11.5344C10.6089 11.673 10.8005 11.7505 10.9999 11.7505C11.1994 11.7505 11.391 11.673 11.5343 11.5344C11.6752 11.3922 11.7542 11.2001 11.7542 11C11.7542 10.7999 11.6752 10.6078 11.5343 10.4656L9.05932 8L11.3749 5.68437L13.8406 8.15937C13.9839 8.29799 14.1755 8.37548 14.3749 8.37548C14.5744 8.37548 14.766 8.29799 14.9093 8.15937C15.0502 8.01718 15.1292 7.82513 15.1292 7.625C15.1292 7.42486 15.0502 7.23282 14.9093 7.09062L12.4343 4.625L14.7499 2.30937L19.6906 7.25Z" fill="#0C437D"/>
</svg>
