<svg width="24" height="16" viewBox="0 0 24 16" fill="none" xmlns="http://www.w3.org/2000/svg">
<path d="M23.25 7.25H22.5V4.25C22.5 3.85218 22.342 3.47064 22.0607 3.18934C21.7794 2.90804 21.3978 2.75 21 2.75H19.5V2C19.5 1.60218 19.342 1.22064 19.0607 0.93934C18.7794 0.658035 18.3978 0.5 18 0.5H15.75C15.3522 0.5 14.9706 0.658035 14.6893 0.93934C14.408 1.22064 14.25 1.60218 14.25 2V7.25H9.75V2C9.75 1.60218 9.59196 1.22064 9.31066 0.93934C9.02936 0.658035 8.64782 0.5 8.25 0.5H6C5.60218 0.5 5.22064 0.658035 4.93934 0.93934C4.65804 1.22064 4.5 1.60218 4.5 2V2.75H3C2.60218 2.75 2.22064 2.90804 1.93934 3.18934C1.65804 3.47064 1.5 3.85218 1.5 4.25V7.25H0.75C0.551088 7.25 0.360322 7.32902 0.21967 7.46967C0.0790176 7.61032 0 7.80109 0 8C0 8.19891 0.0790176 8.38968 0.21967 8.53033C0.360322 8.67098 0.551088 8.75 0.75 8.75H1.5V11.75C1.5 12.1478 1.65804 12.5294 1.93934 12.8107C2.22064 13.092 2.60218 13.25 3 13.25H4.5V14C4.5 14.3978 4.65804 14.7794 4.93934 15.0607C5.22064 15.342 5.60218 15.5 6 15.5H8.25C8.64782 15.5 9.02936 15.342 9.31066 15.0607C9.59196 14.7794 9.75 14.3978 9.75 14V8.75H14.25V14C14.25 14.3978 14.408 14.7794 14.6893 15.0607C14.9706 15.342 15.3522 15.5 15.75 15.5H18C18.3978 15.5 18.7794 15.342 19.0607 15.0607C19.342 14.7794 19.5 14.3978 19.5 14V13.25H21C21.3978 13.25 21.7794 13.092 22.0607 12.8107C22.342 12.5294 22.5 12.1478 22.5 11.75V8.75H23.25C23.4489 8.75 23.6397 8.67098 23.7803 8.53033C23.921 8.38968 24 8.19891 24 8C24 7.80109 23.921 7.61032 23.7803 7.46967C23.6397 7.32902 23.4489 7.25 23.25 7.25ZM3 11.75V4.25H4.5V11.75H3ZM8.25 14H6V2H8.25V14ZM18 14H15.75V2H18V14ZM21 11.75H19.5V4.25H21V11.75Z" fill="#0C437D"/>
</svg>
