<svg width="41" height="32" viewBox="0 0 41 32" fill="#000000
" xmlns="http://www.w3.org/2000/svg">
<path d="M0 32V24C0 22.8667 0.364962 21.9167 1.09489 21.15C1.82481 20.3833 2.70227 20 3.72727 20H9.83068C10.4519 20 11.042 20.1667 11.6011 20.5C12.1602 20.8333 12.6106 21.2833 12.9523 21.85C13.853 23.15 14.9634 24.1667 16.2835 24.9C17.6036 25.6333 19.0091 26 20.5 26C22.022 26 23.443 25.6333 24.7631 24.9C26.0831 24.1667 27.178 23.15 28.0477 21.85C28.4515 21.2833 28.9252 20.8333 29.4688 20.5C30.0123 20.1667 30.5792 20 31.1693 20H37.2727C38.3288 20 39.214 20.3833 39.9284 21.15C40.6428 21.9167 41 22.8667 41 24V32H27.9545V27.45C26.8674 28.2833 25.6949 28.9167 24.4369 29.35C23.179 29.7833 21.8667 30 20.5 30C19.1644 30 17.8598 29.775 16.5864 29.325C15.3129 28.875 14.1326 28.2333 13.0455 27.4V32H0ZM20.5 24C19.3197 24 18.2015 23.7083 17.1455 23.125C16.0894 22.5417 15.2042 21.7333 14.4898 20.7C13.9617 19.8667 13.3017 19.2083 12.5097 18.725C11.7176 18.2417 10.8557 18 9.92386 18C10.6072 16.7667 12.0515 15.7917 14.2568 15.075C16.4621 14.3583 18.5432 14 20.5 14C22.4568 14 24.5379 14.3583 26.7432 15.075C28.9485 15.7917 30.3928 16.7667 31.0761 18C30.1754 18 29.3212 18.2417 28.5136 18.725C27.7061 19.2083 27.0383 19.8667 26.5102 20.7C25.8269 21.7667 24.9572 22.5833 23.9011 23.15C22.8451 23.7167 21.7114 24 20.5 24ZM5.59091 18C4.03788 18 2.7178 17.4167 1.63068 16.25C0.543561 15.0833 0 13.6667 0 12C0 10.3 0.543561 8.875 1.63068 7.725C2.7178 6.575 4.03788 6 5.59091 6C7.175 6 8.50284 6.575 9.57443 7.725C10.646 8.875 11.1818 10.3 11.1818 12C11.1818 13.6667 10.646 15.0833 9.57443 16.25C8.50284 17.4167 7.175 18 5.59091 18ZM35.4091 18C33.8561 18 32.536 17.4167 31.4489 16.25C30.3617 15.0833 29.8182 13.6667 29.8182 12C29.8182 10.3 30.3617 8.875 31.4489 7.725C32.536 6.575 33.8561 6 35.4091 6C36.9932 6 38.321 6.575 39.3926 7.725C40.4642 8.875 41 10.3 41 12C41 13.6667 40.4642 15.0833 39.3926 16.25C38.321 17.4167 36.9932 18 35.4091 18ZM20.5 12C18.947 12 17.6269 11.4167 16.5398 10.25C15.4527 9.08333 14.9091 7.66667 14.9091 6C14.9091 4.3 15.4527 2.875 16.5398 1.725C17.6269 0.575 18.947 0 20.5 0C22.0841 0 23.4119 0.575 24.4835 1.725C25.5551 2.875 26.0909 4.3 26.0909 6C26.0909 7.66667 25.5551 9.08333 24.4835 10.25C23.4119 11.4167 22.0841 12 20.5 12Z" fill="black"/>
</svg>
