<svg width="45" height="45" viewBox="0 0 45 45" fill="none" xmlns="http://www.w3.org/2000/svg">
<path d="M11.25 45C9.6875 45 8.35938 44.4294 7.26562 43.288C6.17187 42.1467 5.625 40.7609 5.625 39.1304C5.625 37.5 6.17187 36.1141 7.26562 34.9728C8.35938 33.8315 9.6875 33.2609 11.25 33.2609C11.6875 33.2609 12.0937 33.3098 12.4687 33.4076C12.8437 33.5054 13.2031 33.6359 13.5469 33.7989L16.2188 30.3261C15.3438 29.3152 14.7344 28.1739 14.3906 26.9022C14.0469 25.6304 13.9688 24.3587 14.1562 23.087L10.3594 21.7663C9.82812 22.5815 9.15625 23.2337 8.34375 23.7228C7.53125 24.212 6.625 24.4565 5.625 24.4565C4.0625 24.4565 2.73438 23.8859 1.64062 22.7446C0.546875 21.6033 0 20.2174 0 18.587C0 16.9565 0.546875 15.5707 1.64062 14.4293C2.73438 13.288 4.0625 12.7174 5.625 12.7174C7.1875 12.7174 8.51562 13.288 9.60938 14.4293C10.7031 15.5707 11.25 16.9565 11.25 18.587V18.9783L15.0469 20.3478C15.6719 19.1739 16.5078 18.1793 17.5547 17.3641C18.6016 16.5489 19.7812 16.0272 21.0938 15.7989V11.5435C19.875 11.1848 18.8672 10.4918 18.0703 9.46467C17.2734 8.4375 16.875 7.23913 16.875 5.86957C16.875 4.23913 17.4219 2.85326 18.5156 1.71196C19.6094 0.570652 20.9375 0 22.5 0C24.0625 0 25.3906 0.570652 26.4844 1.71196C27.5781 2.85326 28.125 4.23913 28.125 5.86957C28.125 7.23913 27.7188 8.4375 26.9062 9.46467C26.0938 10.4918 25.0938 11.1848 23.9062 11.5435V15.7989C25.2188 16.0272 26.3984 16.5489 27.4453 17.3641C28.4922 18.1793 29.3281 19.1739 29.9531 20.3478L33.75 18.9783V18.587C33.75 16.9565 34.2969 15.5707 35.3906 14.4293C36.4844 13.288 37.8125 12.7174 39.375 12.7174C40.9375 12.7174 42.2656 13.288 43.3594 14.4293C44.4531 15.5707 45 16.9565 45 18.587C45 20.2174 44.4531 21.6033 43.3594 22.7446C42.2656 23.8859 40.9375 24.4565 39.375 24.4565C38.375 24.4565 37.4609 24.212 36.6328 23.7228C35.8047 23.2337 35.1406 22.5815 34.6406 21.7663L30.8438 23.087C31.0313 24.3587 30.9531 25.6223 30.6094 26.8777C30.2656 28.1332 29.6562 29.2826 28.7812 30.3261L31.4531 33.75C31.7969 33.587 32.1562 33.4647 32.5312 33.3832C32.9062 33.3016 33.3125 33.2609 33.75 33.2609C35.3125 33.2609 36.6406 33.8315 37.7344 34.9728C38.8281 36.1141 39.375 37.5 39.375 39.1304C39.375 40.7609 38.8281 42.1467 37.7344 43.288C36.6406 44.4294 35.3125 45 33.75 45C32.1875 45 30.8594 44.4294 29.7656 43.288C28.6719 42.1467 28.125 40.7609 28.125 39.1304C28.125 38.4783 28.2266 37.8505 28.4297 37.2473C28.6328 36.644 28.9062 36.0978 29.25 35.6087L26.5781 32.1359C25.2969 32.8859 23.9297 33.2609 22.4766 33.2609C21.0234 33.2609 19.6562 32.8859 18.375 32.1359L15.75 35.6087C16.0938 36.0978 16.3672 36.644 16.5703 37.2473C16.7734 37.8505 16.875 38.4783 16.875 39.1304C16.875 40.7609 16.3281 42.1467 15.2344 43.288C14.1406 44.4294 12.8125 45 11.25 45ZM5.625 20.5435C6.15625 20.5435 6.60156 20.356 6.96094 19.981C7.32031 19.606 7.5 19.1413 7.5 18.587C7.5 18.0326 7.32031 17.5679 6.96094 17.1929C6.60156 16.8179 6.15625 16.6304 5.625 16.6304C5.09375 16.6304 4.64844 16.8179 4.28906 17.1929C3.92969 17.5679 3.75 18.0326 3.75 18.587C3.75 19.1413 3.92969 19.606 4.28906 19.981C4.64844 20.356 5.09375 20.5435 5.625 20.5435ZM11.25 41.087C11.7812 41.087 12.2266 40.8995 12.5859 40.5245C12.9453 40.1495 13.125 39.6848 13.125 39.1304C13.125 38.5761 12.9453 38.1114 12.5859 37.7364C12.2266 37.3614 11.7812 37.1739 11.25 37.1739C10.7188 37.1739 10.2734 37.3614 9.91406 37.7364C9.55469 38.1114 9.375 38.5761 9.375 39.1304C9.375 39.6848 9.55469 40.1495 9.91406 40.5245C10.2734 40.8995 10.7188 41.087 11.25 41.087ZM22.5 7.82609C23.0312 7.82609 23.4766 7.63859 23.8359 7.26359C24.1953 6.88859 24.375 6.42391 24.375 5.86957C24.375 5.31522 24.1953 4.85054 23.8359 4.47554C23.4766 4.10054 23.0312 3.91304 22.5 3.91304C21.9688 3.91304 21.5234 4.10054 21.1641 4.47554C20.8047 4.85054 20.625 5.31522 20.625 5.86957C20.625 6.42391 20.8047 6.88859 21.1641 7.26359C21.5234 7.63859 21.9688 7.82609 22.5 7.82609ZM22.5 29.3478C23.8125 29.3478 24.9219 28.875 25.8281 27.9293C26.7344 26.9837 27.1875 25.8261 27.1875 24.4565C27.1875 23.087 26.7344 21.9293 25.8281 20.9837C24.9219 20.038 23.8125 19.5652 22.5 19.5652C21.1875 19.5652 20.0781 20.038 19.1719 20.9837C18.2656 21.9293 17.8125 23.087 17.8125 24.4565C17.8125 25.8261 18.2656 26.9837 19.1719 27.9293C20.0781 28.875 21.1875 29.3478 22.5 29.3478ZM33.75 41.087C34.2812 41.087 34.7266 40.8995 35.0859 40.5245C35.4453 40.1495 35.625 39.6848 35.625 39.1304C35.625 38.5761 35.4453 38.1114 35.0859 37.7364C34.7266 37.3614 34.2812 37.1739 33.75 37.1739C33.2188 37.1739 32.7734 37.3614 32.4141 37.7364C32.0547 38.1114 31.875 38.5761 31.875 39.1304C31.875 39.6848 32.0547 40.1495 32.4141 40.5245C32.7734 40.8995 33.2188 41.087 33.75 41.087ZM39.375 20.5435C39.9062 20.5435 40.3516 20.356 40.7109 19.981C41.0703 19.606 41.25 19.1413 41.25 18.587C41.25 18.0326 41.0703 17.5679 40.7109 17.1929C40.3516 16.8179 39.9062 16.6304 39.375 16.6304C38.8438 16.6304 38.3984 16.8179 38.0391 17.1929C37.6797 17.5679 37.5 18.0326 37.5 18.587C37.5 19.1413 37.6797 19.606 38.0391 19.981C38.3984 20.356 38.8438 20.5435 39.375 20.5435Z" fill="black"/>
</svg>
